<?xml version="1.0" standalone="no"?>
<!DOCTYPE svg PUBLIC "-//W3C//DTD SVG 1.1//EN" "http://www.w3.org/Graphics/SVG/1.1/DTD/svg11.dtd" >
<svg>
<metadata>
Created by FontForge 20110222 at Thu Sep 18 00:20:05 2014
 By Orthosie Webhosting
(c) Jakob Fischer at www.pizzadude.dk, DO NOT DISTRIBUTE WITHOUT AUTHOR'S  PERMISSION!
</metadata>
<defs>
<font id="Appetite" horiz-adv-x="1000" >
  <font-face 
    font-family="Appetite"
    font-weight="400"
    font-stretch="normal"
    units-per-em="1000"
    panose-1="0 0 4 0 0 0 0 0 0 0"
    ascent="800"
    descent="-200"
    x-height="457"
    cap-height="605"
    bbox="2 -137 455.36 800"
    underline-thickness="20"
    underline-position="-123"
    unicode-range="U+0020-2030"
  />
<missing-glyph horiz-adv-x="500" 
d="M63 0v800h375v-800h-375zM125 63h250v675h-250v-675z" />
    <glyph glyph-name=".notdef" horiz-adv-x="500" 
d="M63 0v800h375v-800h-375zM125 63h250v675h-250v-675z" />
    <glyph glyph-name=".null" horiz-adv-x="0" 
 />
    <glyph glyph-name="nonmarkingreturn" horiz-adv-x="500" 
 />
    <glyph glyph-name="space" unicode=" " horiz-adv-x="500" 
 />
    <glyph glyph-name="glyph4" 
 />
    <glyph glyph-name="glyph5" 
 />
    <glyph glyph-name="glyph6" 
 />
    <glyph glyph-name="glyph7" 
 />
    <glyph glyph-name="glyph8" 
 />
    <glyph glyph-name="glyph9" 
 />
    <glyph glyph-name="glyph10" 
 />
    <glyph glyph-name="glyph11" 
 />
    <glyph glyph-name="glyph12" 
 />
    <glyph glyph-name="glyph13" 
 />
    <glyph glyph-name="glyph14" 
 />
    <glyph glyph-name="glyph15" 
 />
    <glyph glyph-name="glyph16" 
 />
    <glyph glyph-name="glyph17" 
 />
    <glyph glyph-name="glyph18" 
 />
    <glyph glyph-name="glyph19" 
 />
    <glyph glyph-name="exclam" unicode="!" horiz-adv-x="186" 
d="M95 523q2 -28 -4 -81q-5 -44 -11 -89q1 -9 2 -52q2 -34 2 -50q-5 -15 -6 -17q-5 -11 -19 -15q-5 7 -16 9q-8 54 -8 58q-5 11 -3 32q4 26 3 34q2 41 0 63q1 19 2 39q1 11 -3 34q-22 36 -11 70q24 34 64 29q15 -12 15 -27q0 -7 -3.5 -19t-3.5 -18zM95 120q5 -8 5 -17
q0 -16 -14 -40q-2 -5 -42 -3q-13 6 -21 30q9 50 35 50q3 0 7 -2q11 -4 30 -18z" />
    <glyph glyph-name="quotedbl" unicode="&#x22;" horiz-adv-x="254" 
d="M164 501v-45q-3 -20 -3 -37q4 -11 -1 -23t-16 -14q-8 1 -19.5 6.5t-12.5 23.5v27q-2 5 -3 16q1 15 -2 57q-11 26 -2 54q3 4 22 10q26 -1 34 -1q11 -8 11 -25q0 -8 -4 -25.5t-4 -23.5zM83 404q2 -11 -11 -18t-21 -3q-5 11 -18 27q3 30 -5 51q-12 13 -13 51q-4 10 -2 28
q2 14 4 29q9 14 29 14q15 0 26 -8q8 -7 8 -20q0 -7 -2.5 -21t-3.5 -20q-1 -13 1 -30q2 -24 2 -31q2 -17 6 -49z" />
    <glyph glyph-name="numbersign" unicode="#" horiz-adv-x="412" 
d="M337 391q-5 -18 -21 -19q-14 0 -28 1q-11 -8 -13 -33q-3 -35 -5 -40q6 -5 37 -12q24 -6 24 -21q0 -6 -4 -15l-5 -5q-44 -4 -52.5 -14t-5.5 -32q-1 -13 -6 -31q3 -16 9 -49q2 -8 -9 -43q-12 -19 -29 -19q-20 0 -35 22q-3 7 0 19q5 19 6 19q0 16 4 46q-6 19 -4 27
q4 17 4 36l-4 3q-28 -1 -84 -4q-6 -7 -7 -16q1 -9 1 -17q-2 -11 -4 -33q1 -10 0 -23q1 -2 1 -12q5 -9 5 -17q0 -10 -7 -24q-11 -21 -11 -22q-8 -10 -24 -7q-9 2 -14 2q-11 15 -11 30q0 7 4.5 22.5t4.5 24.5q-4 47 -3 85q-3 4 -16 6q-18 3 -20 3q-13 8 -13 24q0 12 8 20
q3 2 7 4q1 0 17 -3q12 -2 21 1q4 4 1 24q0 2 2 28q0 6 3 23q0 6 -5 15.5t-13 9.5q-3 0 -7.5 -1t-6.5 -1q-6 0 -12 4q-10 16 -10 29q0 7 4 11q9 11 47 3q-2 0 8 5q4 -1 6 -3q5 8 8 72q3 74 6 92q3 9 11 19q25 0 31 -5q15 -20 15 -50q0 -15 -5 -44t-4 -43q-11 -32 -8 -38l3 -1
q10 -2 96 0q6 9 4 20q-1 12 0 37q6 44 -3 62q-3 19 5.5 35t26.5 18q5 -2 10 -6q10 -14 12 -36q2 -15 0 -43q-1 -32 -1 -43q0 2 -3 -39q8 -8 18 -12q16 4 31.5 -2.5t11.5 -23.5zM223 376q-21 3 -38 8q-16 -4 -31 -8q-19 -5 -35 -4q1 -15 -3.5 -43t-3.5 -41q14 -11 30 -11
q13 0 26 1q11 9 44 14q1 14 4 38q9 36 7 46z" />
    <glyph glyph-name="dollar" unicode="$" horiz-adv-x="274" 
d="M203 475q1 -5 1 -10q0 -18 -12.5 -31.5t-26.5 -13.5q-9 0 -16 6q0 14 -3 38q-6 6 -15 4l-16 -4q-9 -15 -25 -42q0 1 1 -42q11 -6 12 -14q10 -6 26 -16q6 -6 11 -18q15 -9 49 -44q3 -8 3 -18q0 -23 -17 -45.5t-40 -29.5q-8 -16 -3 -41q-6 -30 1 -48q-2 -12 -5 -32
q-2 -2 -2 -3q-14 -5 -47 2q-9 12 -9 39q0 8 2 33q1 22 1 33q-20 6 -39 29.5t-19 42.5q0 28 42 26q2 -4 7 -10q9 -38 41 -38q16 0 26 16q-7 17 -8 19q-7 12 -21 23q-11 15 -34 43q-7 -1 -18.5 14t-11.5 27q-4 12 -5 23q-3 7 -8 20q3 8 8 25q-3 52 65 85q6 11 3 58q8 29 38 27
q18 -16 17 -38q-1 -36 -1 -40q4 -4 11 -14q20 -6 27 -18q4 -7 10 -23z" />
    <glyph glyph-name="percent" unicode="%" horiz-adv-x="332" 
d="M141 476q5 -56 -30 -89q-51 -9 -67 -5q-38 20 -37 73q0 19 5 52t5 44q1 5 6 17q11 14 37 20q35 -1 55 -13q1 -2 24 -41q0 -7 1 -22q1 7 1 -36zM251 559q-10 -18 -24 -52q-2 -17 -7 -47q-8 -23 -23 -67q-2 -12 -5 -36q-7 -19 -21 -56q-2 -31 -24 -69q-7 -27 -15 -92
q-4 -6 -11 -49q-5 -28 -31 -35q-37 -2 -37 31q0 31 25 68q1 24 17 73t17 65q4 20 13 56q9 24 25 75q5 27 11 54q8 37 20 54q7 17 13 35q10 21 28 26q15 1 24 -6t5 -28zM309 192q0 -17 -5 -37.5t-5 -28.5l-2 -2q-3 -19 -8 -30q-19 -40 -58 -40q-34 0 -43 35q-12 99 -12 116
q0 33 7 55q3 1 28 22q18 15 30 11q19 6 20 6q44 -22 48 -107zM92 466q-4 1 -6 5q2 10 1 56l-6 12q-7 -4 -9 -9q-13 -50 -13 -59q0 -22 13 -37h4q17 10 16 32zM246 191q2 33 -7 44q-3 -4 -10 -24q4 -18 2 -54.5t2 -49.5q-2 0 7 -2q0 1 1.5 1.5t1.5 1.5q4 6 4 17q0 1 -3 33
q-2 21 2 33z" />
    <glyph glyph-name="ampersand" unicode="&#x26;" horiz-adv-x="333" 
d="M260 246q1 -7 1 -12q0 -18 -14 -31t-29 -26q0 -14 6 -20q4 -25 23 -35q4 -8 12 -21q2 -3 2 -7q0 -14 -15 -27.5t-29 -13.5q-6 0 -11 3q-13 18 -25 30q-3 7 -3 22q-1 7 -10 14q-22 -22 -35 -25q-7 -7 -22 -21q-4 0 -17.5 -10t-26.5 -8q-13 0 -37 10q1 11 -2 31
q-15 36 -15 84q0 31 7 60q3 24 3 52q20 38 22 74q1 2 12 34q5 8 13 16q-1 9 -16 48q0 15 -8 41q1 -2 2 17q0 29 37 50q34 20 57 14l28 8q13 2 36 -15q20 -24 12 -48q-3 -9 -32 -38q-6 -11 -17 -29q-8 -9 -18 -17.5t-10 -21t-3 -14.5q3 -14 5 -39q9 -19 17 -38q10 -23 11 -38
q6 -10 15 -32q1 -11 14 -37l1 -1q16 31 40 31q12 0 19 -14zM167 538q2 7 -4 16q-23 4 -37.5 -11.5t-13.5 -37.5q9 -19 8 -23l24 24l5 12q7 7 18 20zM144 165q0 20 -6 30q-2 5 -9 31l-12 21q-3 18 -5.5 37t-11.5 40q-7 -11 -14 -40q-8 -32 -6 -52l-6 -34q-3 -21 -1 -29
q0 -17 4 -47q21 12 67 43z" />
    <glyph glyph-name="quotesingle" unicode="'" horiz-adv-x="101" 
d="M83 404q2 -11 -11 -18t-21 -3q-5 11 -18 27q3 30 -5 51q-12 13 -13 51q-4 10 -2 28q2 14 4 29q9 14 29 14q15 0 26 -8q8 -7 8 -20q0 -7 -2.5 -21t-3.5 -20q-1 -13 1 -30q2 -24 2 -31q2 -17 6 -49z" />
    <glyph glyph-name="parenleft" unicode="(" horiz-adv-x="249" 
d="M187 608q-2 -8 -4 -20q-5 -8 -18 -22q-12 -22 -30 -46q-12 -14 -34 -58q-5 -23 -17 -69q-3 -39 -10 -116q-2 -18 7 -40q0 -16 2 -47l29 -58q17 -22 44 -64q-9 -24 -31 -24q-13 0 -29 10q-14 16 -34 41q-3 19 -10 53q-25 57 -25 106q0 11 2 23q2 52 -4 69q-5 38 17 91
q18 39 35 78q9 26 15 38q12 22 30 38q3 9 7.5 19.5t15.5 16.5q3 1 8 1q21 0 34 -20z" />
    <glyph glyph-name="parenright" unicode=")" horiz-adv-x="207" 
d="M180 363q0 7 -6 -40q0 -2 1 -45q3 -35 3 -34l-8 -42q-5 -25 -18 -54q-1 -15 -11 -53q-13 -14 -33 -41q-15 -10 -28 -10q-20 0 -33 22q2 10 16.5 29t28.5 37q10 19 29 58q1 7 2 47q7 16 6 25q-5 128 -26 200q-13 23 -35 58q-16 25 -47 69q-1 2 -4 18q9 21 30 21
q30 0 31 -30q1 -4 24 -29q8 -9 14 -26q9 -25 10 -28q3 -10 11 -31q16 -27 38 -87q3 -13 5 -34z" />
    <glyph glyph-name="asterisk" unicode="*" horiz-adv-x="377" 
d="M295 400q-9 -2 -30 -9q-10 -1 -20 1t-12 2q-7 0 -12 -8q3 -11 25 -19q5 -3 11 -11q9 -2 23 -15.5t14 -25.5q0 -4 -2 -7q0 -1 1 -5v-6q-2 -5 -9 -9t-8 -7q-3 1 -9 0.5t-9 -0.5q-1 0 -1 -2q-7 0 -22 3q-22 24 -44 46q-20 4 -22 21q-11 8 -25 -2q-9 -7 -15 -21
q-9 -20 -12 -25q-17 -15 -42 -37q-5 3 -9 3q-16 11 -16 27t15 39q12 19 25 37q8 6 25 19l-1 1q-8 1 -27 -1.5t-27 -2.5q-28 0 -42 22q-3 19 20 29q19 9 32 6q8 -4 12 -4h42q1 0 7 2q10 27 -3 60q1 18 2.5 38.5t16.5 34.5q17 4 24 2q4 -1 11 -7q9 -13 9 -44q0 -12 -2 -44
q-2 -27 -1 -37q4 -4 12.5 -3t12.5 -1q11 5 36 7q31 3 40 5q19 -5 19 -24q0 -17 -13 -28z" />
    <glyph glyph-name="plus" unicode="+" horiz-adv-x="382" 
d="M315 351q6 -33 -8 -43q-21 -2 -46 0q-6 -5 -25 -1q-4 1 -23 4q-11 -6 -11 -30q0 -20 5 -33q2 -11 -4 -32q1 -10 -1 -32q-7 -4 -22 -12q-16 -3 -27.5 8t-7.5 30q6 13 -4 51q0 4 3 28q2 10 -3 14q-26 2 -59 1q-4 0 -12.5 -3t-14.5 -3q-13 0 -23 14q-9 21 12 35q2 1 32 5
q10 5 21 5q4 0 42 -12q0 1 1.5 2t2.5 2q1 8 -1 29q1 1 3 18q1 5 1 11q0 7 -3.5 24t-3.5 25q0 9 3 15q12 17 22 18q44 -5 44 -50q0 -10 -2.5 -32.5t-2.5 -31.5q0 -7 1 -13l4 -5q8 -1 17 -1q8 0 25 1.5t27 1.5q20 0 36 -5q0 -3 2 -3z" />
    <glyph glyph-name="comma" unicode="," horiz-adv-x="232" 
d="M149 -12q1 -13 -16 -37q-19 -28 -39 -28q-10 -7 -19 -7q-5 0 -38 17q-4 7 0.5 19.5t16.5 11.5q26 0 37 14q0 -6 2 18q1 9 -8 18l-21 2q-16 1 -25 10q-1 3 -1 8q0 23 23 48q12 8 23 8q7 0 18 -3.5t18 -4.5q17 -13 22 -37q3 -19 5 -38q2 -5 2 -19z" />
    <glyph glyph-name="hyphen" unicode="-" horiz-adv-x="371" 
d="M271 303q-17 -8 -34 -8q-18 0 -41 9q-18 2 -44 -3q-11 -5 -30 4h-51q-21 0 -39 6q-7 7 -6 15q8 18 38 24q23 -1 69 -1q2 1 10 6q8 1 22 4q15 0 39 -5q12 2 35 -1q4 0 30 -2q16 -4 16 -20q0 -17 -14 -28z" />
    <glyph glyph-name="hyphen" unicode="&#x2010;" horiz-adv-x="371" 
d="M271 303q-17 -8 -34 -8q-18 0 -41 9q-18 2 -44 -3q-11 -5 -30 4h-51q-21 0 -39 6q-7 7 -6 15q8 18 38 24q23 -1 69 -1q2 1 10 6q8 1 22 4q15 0 39 -5q12 2 35 -1q4 0 30 -2q16 -4 16 -20q0 -17 -14 -28z" />
    <glyph glyph-name="period" unicode="." horiz-adv-x="235" 
d="M157 69q5 -23 -15.5 -44.5t-41.5 -16.5q-8 -3 -15 -3q-14 0 -40 21q-2 6 -2 14q0 44 39 51q9 7 17 11q12 2 31.5 -7.5t26.5 -25.5z" />
    <glyph glyph-name="slash" unicode="/" horiz-adv-x="234" 
d="M211 559q-10 -18 -24 -52q-2 -17 -7 -47q-8 -23 -23 -67q-2 -12 -5 -36q-7 -19 -21 -56q-2 -31 -24 -69q-7 -27 -15 -92q-4 -6 -11 -49q-5 -28 -31 -35q-37 -2 -37 31q0 31 25 68q1 24 17 73t17 65q4 20 13 56q9 24 25 75q5 27 11 54q8 37 20 54q7 17 13 35q10 21 28 26
q15 1 24 -6t5 -28z" />
    <glyph glyph-name="zero" unicode="0" horiz-adv-x="281" 
d="M200 221q0 -4 -3.5 -16.5t-3.5 -17.5q1 -46 -2 -61q-5 -29 -27 -53q-15 -9 -41 -18q-10 4 -46 4q-7 5 -12 6q-22 3 -28 27q-1 5 -4 42q-2 7 -2 40q-2 10 -4 31q0 -3 4 38q0 1 -1 36q5 28 16 83q-5 43 -4 58q5 11 5 35q-2 37 -1 39q-6 59 15 95q19 13 41 13q9 0 16 -3h22
q8 -3 28 -21q11 -19 10 -50q3 -9 8 -26q0 -14 3 -45q1 -10 -3 -29q-4 -6 -1 -21q6 -24 6 -26q-1 -13 1 -38v-42q3 -14 8 -80zM149 226q1 8 -3 29q-10 15 -6 32v79q0 45 -9 78q2 12 2 32q0 1 -7 30l-2 30q-1 21 -13 21q-6 0 -13 -3q-6 -21 -6 -86q4 -21 4 -41q-1 -35 -1 -37
q-1 -20 -3 -57q-9 -20 -8 -48q2 -25 4 -49q0 -24 -2 -65q3 -9 8 -28q1 -11 1.5 -23t6.5 -19q12 -3 19 -3q22 18 22 58q-2 32 -2 41q3 10 8 29z" />
    <glyph glyph-name="one" unicode="1" horiz-adv-x="226" 
d="M140 100q-1 -11 -17 -22.5t-28 -10.5h-6q-4 2 -15 13q-1 24 2 64q4 55 5 61q-2 29 -5 95q0 2 -2 9t-2 10q0 7 2 22t2 20q0 -2 -3 49q8 16 2 42q-3 13 -2 31q3 26 3 28q0 10 -3 17q-32 -9 -33 -9q-9 0 -17 6q-3 6 -3 10q0 10 25 24q17 32 57 42q12 1 26 -1q8 -10 10 -29
t-3 -28q1 -15 3 -46q-1 -15 -2 -44q-5 -23 -5 -27q0 -7 2.5 -22t2.5 -25q-2 -11 -4 -21q-2 -13 3 -20q1 -4 3 -10q1 -9 -3 -46q3 -21 -2 -73q4 -30 3 -30q-5 -24 -4 -32q4 -15 8 -47z" />
    <glyph glyph-name="two" unicode="2" horiz-adv-x="251" 
d="M174 552q1 -7 -1 -25q-2 -22 -2 -30q-2 -19 -7 -60q-6 -35 -20 -67q-4 -12 -7 -31q-4 -31 -4 -33l-12 -18q0 -9 -1 -28q-13 -50 -20 -100q-8 -15 -15 -29q-9 -18 -6 -30l2 -2q13 2 22 3q7 6 24 6q42 0 46 -26q-2 -18 -26 -27q-31 3 -43 3q-23 -5 -36 -5q-30 0 -49 20
q2 20 7 34t14 65q4 8 12 35v15q5 9 14 27q1 8 3 22q6 13 8 19q0 21 11 54q-1 11 -2 32q15 38 27 61q-2 19 -2 46q0 4 5 20q4 12 4 22q0 8 -3.5 19t-21.5 17q-13 -3 -27 -21q1 -16 3 -58q0 -4 4.5 -13.5t4.5 -14.5q0 -4 -2 -8t-10 -10t-13 -5q-9 -1 -16.5 3.5t-9.5 9.5
q1 9 -3.5 27.5t-4.5 27.5q0 14 8 27q0 12 3 36q4 18 26 27q31 12 32 13q29 -2 39 -4q23 -6 35 -22q4 -8 10 -24z" />
    <glyph glyph-name="three" unicode="3" horiz-adv-x="261" 
d="M180 280q-3 -12 -9 -24q1 -15 -27 -71q-1 -4 -6 -36q-9 -17 -27 -53q-8 -4 -17 -20q-14 -25 -15 -27q-15 -9 -36 -10q-24 13 -24 37q0 13 8 23q44 11 61 86q2 27 13 41q15 64 15 84q0 12 -2 21q-6 10 -8 27q0 10 -1 20q-9 17 -24 17q-17 -11 -48 3q1 5 -1 16.5t-2 15.5
q0 15 15 20q25 2 40 32q11 23 12 52q-4 6 -29 6q-36 -1 -35 -1q-4 4 -4 9q0 11 25 34q3 2 18 6q37 -4 45 -6q29 -7 44 -26q4 -18 -9 -38q2 -13 -10 -33q-14 -27 -15 -30q-22 -24 -21 -29q44 4 66 -39q2 -15 -1 -30q2 -12 8 -30q-1 -26 1 -47z" />
    <glyph glyph-name="four" unicode="4" horiz-adv-x="309" 
d="M232 243q3 -5 3 -11q0 -23 -22 -28q-19 5 -25 -8q0 -34 1 -56q1 -6 5.5 -23.5t4.5 -27.5q0 -11 -5 -19q-12 -12 -34 -15q-18 -3 -27 2q-1 3 -1 8q3 18 7 54q-1 -9 -4 40q1 12 1 35q-2 1 -7 4q-18 -8 -84 1q-2 0 -11 -1h-12q-4 8 -8 24q-2 14 8 63q1 11 10 102q6 60 6 96
q3 24 14 75q-2 0 -6 2q-1 3 2.5 8.5t3.5 14.5q12 4 20 10q15 6 32 -12q10 -26 -8 -61q-1 -4 0 -16q-2 -29 -1 -40q4 -15 3 -22q-6 -20 -12 -60q2 -15 2 -45q-2 -12 -5 -37q-3 -9 -5 -18q-2 -10 4 -18q18 -7 65 -2q7 5 6 21q-2 16 -4 33q-3 14 -4 39q10 35 2 90q2 32 19 48
q9 6 29 3q2 -2 6 -10q-3 -22 0 -65q1 -1 -3 -25q-2 -13 -1 -48q5 -39 -4 -77q-4 -10 5 -15q10 -1 20 -2.5t14 -10.5z" />
    <glyph glyph-name="five" unicode="5" horiz-adv-x="284" 
d="M203 265q-4 -13 -8 -21q2 -27 -1 -50q-7 -33 -27 -58q-4 -12 -6 -27l-12.5 -25t-17.5 -19q-30 -11 -48 1q-15 2 -25.5 18t-19.5 30q-1 9 -13 60q-10 43 -10 69q0 10 1 19q-3 17 17 37q10 4 27 4q15 -16 9 -55q-1 -12 7 -31q9 -26 10 -27v-33q6 -11 22 -27q18 7 22 30
q2 18 4 37q0 8 7 27q2 16 8 36q-4 15 -2 44q2 26 3 44q-4 14 -13 38q3 15 0 31q-4 18 -8 37q-10 16 -25 14q-7 -9 -24 -27q-5 -16 -17 -46q-12 -6 -30 -2q-14 6 -18 23q-2 12 1 32q4 25 4 31q-7 27 -3 46q0 7 -3 17q0 -4 3 27q-1 12 10 19q5 5 19 4h19q6 0 38 9q-5 -1 21 -3
q10 -4 32 -7t33 -7q2 -5 2 -13q0 -26 -20 -31q-14 4 -21 3q-46 -10 -80 0q-12 -7 -1 -46q15 9 45 24q14 -2 32 0l27 -8q9 -6 12 -12q19 -96 19 -105q0 -10 -2 -17q-3 -19 1 -52v-62z" />
    <glyph glyph-name="six" unicode="6" horiz-adv-x="283" 
d="M198 248q2 -12 2 -26q0 -46 -22 -91q-1 -9 -6 -29q0 -13 -13 -28q-15 -18 -30 -15q-12 -5 -24 -5q-24 0 -49 21q-32 74 -32 99q0 17 6 33q0 16 -9 74q7 46 9 54q5 25 16 49q-2 16 -2 38q6 12 13 46q4 9 17 31q1 7 5 19q28 46 68 67h34l6 -4q5 -26 4 -27q0 -4 -13.5 -10.5
t-26.5 -13.5q-8 -9 -17 -18q-11 -13 -12 -23q4 -6 16 -9t16 -6q49 -62 49 -128q0 -17 -5 -33q0 -1 -3 -20q-1 -11 3 -18q2 -16 0 -27zM150 186q-1 -6 -5 61q1 18 1 52q-2 9 -4 23q-1 19 -6 53q0 8 2 25q0 13 -10 23t-20 8q-9 -18 -12 -26q-4 -13 -5 -29q-6 -15 -18 -47
q6 -14 6 -26q0 -7 -2.5 -19t-2.5 -18q-1 -30 -1 -40q9 -26 9 -61q10 -44 19 -52h8q6 5 20 19q2 8 5 22q8 15 16 32z" />
    <glyph glyph-name="seven" unicode="7" horiz-adv-x="249" 
d="M181 602q1 -16 -14 -51q-3 -42 -4 -51q-5 -29 -21 -55q2 -24 2 -68q-6 -41 -18 -68q0 -14 -2 -43q-4 -14 -3 -34q1 -29 1 -28q1 -11 -3 -24q1 -16 1 -47q-3 -33 -3 -32q4 -9 2 -16q-3 -26 -34 -26q-7 0 -12 2q-12 7 -16 16q-3 27 3 50q0 9 -5 37q5 35 9 68t2 63
q20 49 18 91q0 -4 8 51q10 27 9 30q9 42 20 77q0 2 -9 14q-9 -1 -23 0q-17 1 -22 1q-12 -5 -35 -2q-7 4 -7 14q2 19 15 27q21 7 34 7q6 3 13 7q11 1 30 1q20 -3 61 -8z" />
    <glyph glyph-name="eight" unicode="8" horiz-adv-x="292" 
d="M212 136l-11 -33q-3 -19 -15 -27q-23 -17 -73 -17q-24 0 -38 6q-23 15 -49 64q-2 10 2 29q5 26 7 49q-7 27 -3 36q-2 6 -7 19q6 39 11 78q7 48 33 68q-9 9 -21 24q-5 13 -15 40q0 1 11 87q7 12 20 29q29 14 44 14q7 0 12 -3q33 2 59 -16q6 -4 12 -14v-33q3 -15 6 -29
q5 -24 4 -40q-4 -11 -15 -21l-20 -19q44 -32 44 -78q0 -8 -2 -15t-4 -22q1 -12 2 -36q-2 -13 -7 -39q-2 -8 1.5 -17.5t6.5 -18.5q2 -22 5 -65zM136 461q3 8 -1 36q4 10 4 21q0 34 -30 33q-7 -19 -12 -28l4 -22q2 -5 -1 -16q-3 -14 -4 -15q1 -3 1 -9v-7q2 -5 10 -12
q5 0 29 19zM156 203q-2 4 -5 50q2 10 -3 27.5t-5 25.5q0 9 3 17q9 26 -5 63q-3 5 -7 6q-28 4 -30 -2q-12 -36 -15 -93q9 -30 5 -73q-11 -34 1 -66q2 -40 30 -49q10 0 16 11.5t11 21.5q1 5 1 33q0 5 1.5 14.5t1.5 13.5z" />
    <glyph glyph-name="nine" unicode="9" horiz-adv-x="271" 
d="M192 321q0 -6 -4 -30q-5 -28 -6 -38q1 -19 1 -55q-1 -1 -8 -44q-10 -30 -36 -91q-18 -15 -37 -15q-15 0 -23 10q-1 1 -2 1q-9 11 5 35q40 32 38 109q-2 3 -5 4q-9 -3 -19 -3q-35 0 -63 35q-7 18 -9 37q-2 31 -6 51v49q7 25 7 38q2 19 6 52q4 8 10 24q11 60 43 96
q14 8 18 5q7 6 16 6q25 0 32 -30q-1 -5 14 -43q15 -48 15 -76q0 -21 2 -63q5 -10 11 -64zM134 351q-1 2 -4 78q-1 45 -6 54v32q-1 20 -13 31h-4q-8 -15 -13 -36q-5 -7 -12 -21q-1 -10 -5 -28v-31q-1 -14 -11 -52q-2 -45 0 -78q5 -8 14 -33q6 -16 14 -18q11 -1 26 2
q14 25 14 41q0 11 -5 21q0 3 5 38z" />
    <glyph glyph-name="colon" unicode=":" horiz-adv-x="235" 
d="M146 436q3 -54 -45 -62q-2 -1 -6 -1q-7 0 -24 12q-7 1 -19 4q-2 2 -4 5q-5 7 -5 18q0 18 11.5 34.5t29.5 18.5q11 0 32 2q2 -2 10 -4q9 -11 20 -27zM157 269q5 -23 -15.5 -44.5t-41.5 -16.5q-8 -3 -15 -3q-14 0 -40 21q-2 6 -2 14q0 44 39 51q9 7 17 11q12 2 31.5 -7.5
t26.5 -25.5z" />
    <glyph glyph-name="semicolon" unicode=";" horiz-adv-x="232" 
d="M155 414q-3 -19 -29 -28q-10 -9 -20 -9l-2 -1q-8 0 -22 8q-28 2 -28 31q0 24 15 39q6 3 16 7q13 1 26 0q10 4 28 -10.5t18 -28.5q0 -5 -2 -8zM149 208q1 -13 -16 -37q-19 -28 -39 -28q-10 -7 -19 -7q-5 0 -38 17q-4 7 0.5 19.5t16.5 11.5q26 0 37 14q0 -6 2 18q1 9 -8 18
l-21 2q-16 1 -25 10q-1 3 -1 8q0 23 23 48q12 8 23 8q7 0 18 -3.5t18 -4.5q17 -13 22 -37q3 -19 5 -38q2 -5 2 -19z" />
    <glyph glyph-name="less" unicode="&#x3c;" horiz-adv-x="284" 
d="M213 67q-6 -6 -33 -13q-11 3 -25 11q-5 11 -16 35q-44 42 -48 88q-18 21 -28 44q-7 19 -14 37q-5 6 -15 17q-2 3 -7 15q-1 4 0 17q9 27 37 82q2 15 10 46l21 21q2 10 6 31q6 12 14 37q7 43 36 48q25 5 35 -13q1 -4 -5 -28q-2 -30 -38.5 -92t-36.5 -90q-1 -2 -11 -23
q-6 -12 -3 -26q10 -8 18 -23q11 -19 14 -24q-1 -3 20 -38q2 -11 10 -32q12 -8 31 -27q0 -13 5.5 -27t10.5 -26q6 -6 7 -13q13 -22 5 -34z" />
    <glyph glyph-name="equal" unicode="=" horiz-adv-x="375" 
d="M307 393q-19 -14 -54 -14q-21 0 -45 5q-1 0 -27 -3l-46 -1q-9 -3 -22 -4q-14 4 -43 10q-20 -2 -33 -1q-13 8 -13 22q0 23 24 29q29 3 46 -4q2 -2 19.5 2t22.5 4q10 -2 48 6q6 1 17 -3q13 1 40 3q17 1 48 -1q18 -16 18 -50zM299 277q6 -19 -11 -37q-24 -12 -55 -4
q-15 4 -40 -4q-34 5 -69 -1q-15 -1 -33 5q-6 1 -20 -2t-20 -3q-18 0 -28 19q-3 13 6.5 22.5t19.5 6.5q26 6 78 16q2 0 36 -2q24 -1 39 5q15 2 30 -4q30 0 34 -1q20 -2 33 -16z" />
    <glyph glyph-name="greater" unicode="&#x3e;" horiz-adv-x="284" 
d="M27 67q5 -6 33 -13q11 3 24 11q5 11 17 35q44 42 48 88q18 21 28 44q6 19 13 37q5 6 15 17q2 3 8 15v17q-9 27 -37 82q-3 15 -11 46l-21 21q-1 10 -5 31q-6 12 -14 37q-7 43 -36 48q-25 5 -35 -13q-1 -4 5 -28q2 -30 38.5 -92t36.5 -90q0 -2 11 -23q5 -12 3 -26
q-10 -8 -18 -23q-11 -19 -15 -24q2 -3 -19 -38q-3 -11 -10 -32q-12 -8 -31 -27q0 -13 -6 -27t-11 -26q-5 -6 -6 -13q-14 -22 -5 -34z" />
    <glyph glyph-name="question" unicode="?" horiz-adv-x="287" 
d="M221 455q-12 -20 -37 -62q-10 -9 -40 -32q-2 -2 -12 -18q-8 -32 -4 -71q16 -35 0 -63q0 -6 -27 -10q-8 1 -23 2q-16 5 -18 23q0 -1 1 29v42q0 20 0 18q0 6 19 38q3 14 17 39q56 42 59 81q0 20 -1 58q-8 11 -18 11q-6 0 -19 -5t-18.5 -6t-9.5 -8q-5 -20 -12 -61
q2 -12 3 -37q-3 -10 -12.5 -16t-19.5 -4q-15 5 -20 19q-2 10 -4 21q-7 28 -1 41q-10 15 5 48q5 6 28 18q29 31 71 31q33 0 58 -18q6 -8 11 -7q28 -28 23 -72q2 -17 1 -29zM138 116q7 -8 7 -21q0 -33 -29 -38q-2 -2 -21 3q-30 -3 -30 31q0 31 28 39q16 -1 45 -14z" />
    <glyph glyph-name="at" unicode="@" horiz-adv-x="389" 
d="M310 424q-3 -13 -8 -38q3 -44 -1 -55q0 -17 -11 -58q-8 -10 -24 -12q-17 1 -36 7q-14 1 -30 14h-3q-12 -11 -35 -26q-16 0 -15 0q-5 -2 -10 -2q-14 0 -25 15t-11 30q14 49 19 62q11 31 23 48q16 10 31 9l32 -2q19 -18 24.5 -44.5t19.5 -39.5q6 8 6 19q0 7 -3.5 21
t-3.5 19q3 22 2 38q3 5 3 15q0 26 -14 36q-3 11 -3 17q0 19 -8 35q-17 21 -46 17q-17 -10 -24 -16q-18 -14 -26 -27q-7 0 -12.5 -13t-10.5 -25q2 -1 2 -5q0 -18 -27 -77q4 -13 4 -27q0 -19 -10 -54q16 -29 24 -127q7 -14 13 -28q10 -18 23 -22q22 -14 43 -14q27 0 38 20
q12 10 15 24q-2 7 0 17q-5 10 -5 20q0 20 17 36t39 17q7 -6 8 -39q3 -10 5 -25q1 -10 -3 -19q-8 -12 -17 -39.5t-17 -40.5q-4 -5 -33 -24l-8 -2.5t-12 -2.5q-14 1 -52 -1q-31 13 -68 25q-5 8 -15 21q-28 16 -31 48q-1 29 -1 59q-1 11 -1 34q-5 18 -16 54q0 -6 4 20
q-4 45 -5 40q1 5 7 17q1 16 13 59q10 52 10 54q9 31 33 53q5 12 21 40q20 5 65 20q9 2 19 2q40 0 70 -30q21 -23 38 -58q3 -9 7 -28q0 -4 -3 -23q2 -12 6 -38zM177 367q2 0 -7 1q-2 -3 -8 -25q-10 -23 -10 -32q0 -1 2 -2.5t3 -1.5q-5 0 15 3q9 39 9 41q0 10 -4 16z" />
    <glyph glyph-name="A" unicode="A" horiz-adv-x="331" 
d="M241 150q13 -54 13 -57q0 -29 -32 -36q-26 3 -35 16l-2 34t-8 30q1 8 -7 21q-7 3 -22 0q-22 -3 -24 -3q-32 -16 -42 -14q-5 -15 -7 -39q-2 -27 -4 -36q-7 -20 -27 -20q-27 0 -33 24q-1 12 9 58.5t10 58.5v46q0 5 4 25q3 16 1 24q2 5 6 56q3 35 20 66q-2 29 10 66
q5 31 10 73q-1 3 13 30q3 7 5 18q9 13 22 13q9 0 21 -6q17 -8 18 -8q6 -11 16 -32q1 -10 13 -55q10 -39 9 -66q17 -35 20 -82q6 -85 8 -97q1 -7 -1 -26q2 -13 10 -31q0 -18 6 -51zM168 220q0 11 -3 36l-4 26q1 20 -5 58l-10 93q-1 8 -15 31q-3 22 -5 35q-4 -6 -5 -51
q-6 -37 -20 -108q-2 -17 -5 -49q0 2 0 -39q1 -23 -5 -27q7 -7 11 -14q12 0 25 4q9 2 16 0l19 -4q5 4 6 9z" />
    <glyph glyph-name="B" unicode="B" horiz-adv-x="398" 
d="M316 571q-1 -14 -4 -27l-36 -56q-25 -38 -53 -40q-4 -5 -4 -11q22 -4 45 -9.5t27 -29.5q-1 -5 18 -19q14 -19 14 -46q0 -20 -8 -38q0 -12 -2 -33q-5 -8 -13 -23q-3 -9 -8 -28q-6 -11 -20 -27q-4 -8 -13 -38q-23 -30 -85 -92q-5 -2 -15 1q-13 5 -18 5t-19 -5q-23 -1 -37 3
q-3 13 -11 39q2 26 9 41q2 6 -1.5 20.5t-3.5 16.5q-1 10 2 30q3 24 4 29q-9 22 -10 34q-3 51 -3 54q12 67 -2 93q-1 38 3 103q-3 4 -7 13q-9 -7 -20 -7q-26 0 -27 22q9 19 36 27q9 7 35 14q24 18 58 20q7 8 21 13q69 11 90 4q3 1 7 1q14 0 29 -10.5t15 -24.5q6 -11 7 -19z
M246 585l-3 3q-21 4 -40 -6q-10 -2 -23 -1q-4 -2 -31 -13q-9 -8 -27 -17l4 -38q2 -23 -4 -37t-6 -21q0 -9 7 -14q7 3 18 8q8 2 21 6q18 20 51 51q5 10 5 14q6 9 23 29q7 23 5 36zM247 276q-1 6 -1 17q3 7 3 16q0 45 -47 87q-1 0 -32 2q-8 -4 -20 -9q-4 0 -10 1t-8 1
q-4 -4 -6 -9l3 -57q0 -11 1 -31q2 -24 2 -32q9 -17 2 -52q2 -5 22 -93q4 -4 7 -4q1 1 3 1q14 14 32 35q9 16 33 88q6 12 16 39z" />
    <glyph glyph-name="C" unicode="C" horiz-adv-x="333" 
d="M260 100q-16 2 -29 -7t-27 -19q-19 -4 -61 -17q-9 0 -20 3q-41 2 -47 41q0 1 -15 19q-2 12 -6 33q-4 7 -4 21q0 20 -0.5 22t-8.5 28q-6 19 -3 30q2 16 1 47q-2 4 -3 45q-1 14 1 27q0 5 15 52q-2 8 -4 25q1 4 12 43q-1 32 21.5 70.5t54.5 56.5q30 5 48 7q23 -10 36 -14
q17 -16 21 -26q18 -43 18 -76q0 -46 -40 -48q-13 5 -17 20q1 57 -17 85q-13 3 -28 0q-13 -15 -25 -29.5t-12 -31.5q-3 -7 -8 -20q1 -6 1 -11q0 -9 -5.5 -25.5t-5.5 -24.5q1 -16 -6 -45q0 -9 4 -33q-4 -38 2 -77q3 -21 0 -75q10 -10 13 -18q2 -18 7 -40q12 -25 37 -25
q8 0 17 2q8 8 24 20q27 15 51 17q19 -9 19 -29q0 -15 -11 -23z" />
    <glyph glyph-name="D" unicode="D" horiz-adv-x="372" 
d="M295 359q2 -12 -1 -29q-2 -13 -5 -26q2 -8 2 -17q0 -28 -23 -64q-1 -21 -31 -56q-44 -52 -55 -62q-29 -28 -54 -28q-19 -18 -35 -18q-13 0 -26 10q-8 34 -1 54q-1 11 -2 35q-5 16 -5 37q0 27 10 75q2 11 4 37q-4 12 -4 26q0 9 -4 20t-5 27q-2 26 -4 39q10 26 1 74
q0 13 -1 40q-4 0 -12 -2q-29 4 -29 22q4 17 17.5 28.5t28.5 8.5q49 12 56 11q22 9 53 6q29 -4 53 -29q18 0 35 -22q14 -35 14 -52q1 -5 16 -50q0 -35 1 -47q-3 -14 0 -26zM227 259q1 13 -6 127q1 5 4 14v51q-4 17 -10 47q-12 25 -37 42q-28 17 -53 13q-8 -7 -10 -17v-38
q-4 -27 -3 -31q3 -9 7 -23q-2 -19 1 -69q6 -17 4 -42q-1 -36 -1 -39q-3 -14 -4 -27q2 -6 2 -44v-55q0 -3 -1.5 -16.5t-1.5 -21.5l2 -2q8 1 22.5 15.5t21.5 13.5q17 18 25 28q14 20 15 35q12 19 23 39z" />
    <glyph glyph-name="E" unicode="E" horiz-adv-x="284" 
d="M249 159q7 -15 -4 -39q-47 -54 -111 -56q-5 -2 -17 -6q-13 0 -28 4q-10 7 -16 17q-3 21 -13 60q0 11 1 34q-1 9 -3 28q0 1 -4 42q1 8 2 34q1 23 -1 65q19 55 12 98q-3 51 7 71q3 5 -2 5q-4 9 -9 14q-14 -2 -28.5 8.5t-14.5 23.5q0 11 11 20q19 -1 51 0q28 3 31 3t113 2
q6 -2 17 -7q7 -10 -6 -38q-14 -9 -63 -7q-1 0 -19 5q-12 4 -18 2q-2 -12 -4 -34q-3 -8 -7 -24q-1 -11 -2 -33q10 -26 -1 -46q0 1 -1 -20q-1 -11 9 -19q1 0 2 -1q32 8 56 8q16 -5 32 -9q22 -10 17 -29q-1 -7 -6 -16q-11 -9 -27 -9q-11 0 -33 5t-32 5t-17 -3q-3 -3 -3 -9
q0 -12 6 -31q-2 -12 -2 -35q2 -10 5 -28q0 -4 -1 -57q-1 -31 5 -43q6 -4 26 -1q16 -1 39 22.5t35 22.5q3 1 16 1z" />
    <glyph glyph-name="F" unicode="F" horiz-adv-x="348" 
d="M297 583q1 -11 -10 -30q-12 -6 -44 -6q-15 -4 -45 -9q-64 5 -60 5q-10 -9 -15 -22q-4 -2 -3 -15q2 -18 1 -22q-7 -56 -7 -52q0 -25 15 -37q3 0 10 1.5t11 1.5q1 -1 6 0q19 -5 41 -6q11 -2 12 -15q2 -11 -4 -19q-15 -14 -32 -14q-6 0 -17.5 3t-17.5 3q-11 0 -20 -9
q4 -18 4 -35q0 -11 -3.5 -33.5t-3.5 -36.5q11 -46 11 -41q0 -4 -2 -7q-4 -18 -9 -54q4 -20 -2 -58q-14 -16 -31 -18q-5 -3 -10 -3q-10 0 -17 8.5t-7 19.5q0 3 1 6q19 63 19 108q0 23 -5 42v51l1 16t1 24q-2 4 -10 5q-14 3 -20 6.5t-6 15.5t4 19q25 4 25 26q0 4 -2 8
q4 10 -4 40q-1 11 0 23q5 21 10 68q-14 9 -34 7q-9 8 -9 21q0 20 15 29q13 -1 26 -3q17 -1 28 4q11 2 37 -3t38 -4q3 2 12 4q4 0 22 -1.5t28 -1.5q33 5 39 5q2 1 8.5 -0.5t9.5 -1.5q5 -4 15 -13zM70 58v2h-3v-2h3z" />
    <glyph glyph-name="G" unicode="G" horiz-adv-x="329" 
d="M250 44q-8 -26 -34 -26q-12 0 -22 8q-6 15 -6 62q-1 0 -2 0.5t-1 1.5q-9 -5 -25 -15q-9 -2 -25 0l-33 -12q-12 0 -20 -1q-21 4 -43 43q-1 9 -8 29q-12 17 -10 41v16q-11 38 5 84q-1 15 -2 46q4 22 7 44q3 21 0 46q2 11 8 25.5t14 40.5q3 16 4 27q1 47 62 92q29 12 42 12
q23 0 47.5 -23t24.5 -46q0 -11 -7 -19q-2 -1 -19 -9q-15 -3 -24 14q-7 14 -13 28q-14 0 -26 -9q-6 -9 -19 -25q-6 -8 -18 -23q-2 -12 -8 -35q-8 -27 -25 -81q1 0 6 -23q1 -9 -7 -38q0 -3 2.5 -31.5t2.5 -32.5v-46q0 1 5 -16q2 -48 27 -79q13 -3 31 14l36 34q3 13 10 35
q-6 53 -4 68q-1 23 0 63q0 5 -2.5 21.5t-2.5 25.5q0 19 8.5 31t23.5 12q26 0 29 -25q-1 -24 2.5 -54t3.5 -40q0 -21 -7 -42q1 -7 6 -20q3 -9 2 -16q-1 -47 -5 -98q1 -6 7 -41q4 -23 2 -38z" />
    <glyph glyph-name="H" unicode="H" horiz-adv-x="360" 
d="M273 238q-1 -20 -4 -61q0 -11 2 -31q2 -23 2 -30q0 -27 -16 -40q-12 -7 -22 -7q-19 0 -26 21q0 5 5 29q0 1 -5 28q1 9 0 26q-2 11 -5 32q0 8 4 51q-1 -8 -2 34q1 7 -2 18q-12 8 -37 8q-30 0 -43 -13q-5 -40 -4 -54q1 -8 -1 -51q-1 -30 7 -51q-3 -19 0 -57q-4 -16 -21 -25
t-31 -7q-23 17 -23 43q0 6 3 28q3 17 1 28q2 11 5 36q-1 17 0 50q0 5 5 21q5 13 5 20t-4 13q-13 -3 -34 -5q-2 2 -16 14q-5 6 -5 14q0 11 11.5 19.5t23.5 8.5q4 0 8 -1l3 4q-1 17 0 53q-2 23 -2 67q3 11 5 21q5 19 3 30q1 10 0 27q-2 19 -2 25q0 19 10 33q5 5 19 5
q13 0 21 -4q16 -13 16 -30q0 -4 -7 -32q1 2 3 -27q0 -2 -1 -47q-3 -14 -7 -28q-3 -17 1 -28q0 6 -2 -34q-2 -23 7 -31q11 5 33 12q2 0 25 -1q14 0 22 5q2 5 3 15q-3 12 -4 37q3 19 4 34q0 26 1 80q-5 57 4 70q12 9 27 9q17 0 28 -10q11 -22 4 -68q3 -19 -4 -67q-1 -12 2 -51
q-3 -50 -2 -81q11 -64 9 -97z" />
    <glyph glyph-name="I" unicode="I" horiz-adv-x="201" 
d="M117 563q-2 -10 -7 -30v-42q0 -6 -1 -12q-4 -12 -1 -32q3 -24 2 -31q-2 -15 -5 -45q1 -22 0 -36q-2 -11 -5 -33q1 -9 4 -29q-9 -91 2 -134q2 -36 2 -33q-2 -33 -22 -44q-29 -6 -44 16q-6 69 -1 87q0 3 -5 36q-3 28 -3 42q0 8 11 45q4 14 1 40q-4 49 -4 56q8 30 5 101
q-1 13 -6 51q3 17 8 51q4 7 15 16q6 2 12 2q17 0 31 -13t11 -29z" />
    <glyph glyph-name="J" unicode="J" horiz-adv-x="325" 
d="M262 582q-17 -13 -41 -6q-7 -5 -7 -19q0 -7 3 -25t3 -26q-2 -12 -5 -35q0 -6 1 -38q0 -46 -1 -138q-1 -11 1 -28q2 -25 2 -28q0 1 -3 -42q-1 -11 -9 -49q4 -42 -8 -64q-15 -23 -47 -28q-14 1 -46 0q-21 2 -54.5 25.5t-36.5 40.5q-2 7 4.5 18t14.5 12q9 0 32 -3
q16 -14 28 -28q20 -4 28 -4q18 0 28 14l1 34l9 54q0 7 -3 27t-3 31q-1 21 -1 53q1 8 5 30q3 17 3 26q0 8 -2 14q-6 35 5 87q2 6 -2 68q-2 3 -7 4q-8 1 -29 -3.5t-30 -4.5q-29 0 -38 33q6 18 27 23q2 1 35 3q19 7 31 6q1 0 52 6q34 3 47 0q22 -13 13 -40zM233 601l-1 2h-2
l1 -2h2z" />
    <glyph glyph-name="K" unicode="K" horiz-adv-x="344" 
d="M271 582q-16 -34 -53 -64q-8 -25 -38 -56q-27 -26 -54 -51l3 -3q9 2 28 4q12 5 22 5q31 0 39 -50q5 -39 9 -78q-2 -11 5 -44q9 -38 9 -53q18 -54 18 -90q0 -11 -3 -17q-24 -27 -45 -27q-6 0 -12 2q-6 6 -11.5 12.5t-10.5 21.5q1 6 1 18q-4 9 -4 53q-1 33 -4 94
q6 34 -17 93q-5 2 -14 2q-32 0 -43 -19q-1 -9 -2 -28q-7 -20 -10 -37q1 -16 1 -47q12 -19 5 -71q-1 -10 1 -24q3 -20 4 -23l-6 -27q-3 -7 -11 -11t-15 -7q-18 -4 -29 11t-11 34q0 8 2 14q-2 43 0 123q2 6 7 67q4 12 10 35q-8 30 -10 80l-2 88l6 6q-5 25 -4 81q6 22 31 22
q9 0 17 -5q13 -12 15 -36q-9 -14 -4 -31q3 -5 3 -18q0 -10 -3 -40t-3 -44q22 16 29 23q13 13 18 27q6 4 23 35q14 13 37 43q3 11 14.5 29t39.5 18q11 0 19 -3q7 -11 3 -37z" />
    <glyph glyph-name="L" unicode="L" horiz-adv-x="255" 
d="M188 145q8 -10 8 -20q0 -13 -21 -27q-25 -16 -27 -20q-10 -1 -41 -11.5t-46 -10.5q-27 0 -36 26q5 3 3 18q-3 24 -3 33q0 1 3 18q2 13 1 20q0 18 4 55q3 11 -2 34q-1 1 -1 34v43q0 4 -1.5 27.5t-0.5 37.5q0 21 3 29q3 21 2 51q3 18 -4 36q0 11 -1 34q-4 25 17 46
q5 3 11 3q19 0 31 -20q5 -16 3 -33q-1 -3 -2 -8q2 -47 2 -55q-5 -59 -5 -57q2 -15 -3 -34q9 -21 9 -38q-1 -14 -3 -63q-1 -35 -6 -170l6 -3q19 4 51 15.5t38 11.5t11 -2z" />
    <glyph glyph-name="M" unicode="M" horiz-adv-x="417" 
d="M335 98q4 -12 -4 -26.5t-24 -15.5q-5 -2 -11 -2q-22 0 -34 26q-2 14 0 23q4 15 5 39q0 2 -1 55q3 17 3 39q-10 99 -9 118q-3 23 -6 63q-1 6 3 33q2 19 -5 28h-8q-1 -2 -4 -10q0 -1 -6 -59q-5 -48 -3 -71q0 -10 -4 -39q-9 -36 -9 -37v-46q-2 -13 -7 -78q-3 -35 -13 -63
q-12 -10 -19 -13q-35 5 -40 67q-1 28 -14 83q0 12 -1 33q2 8 -15 60q-6 49 -8 59q-5 30 -13 48q-1 3 0 12.5t0 14.5q-1 7 -6 11q-9 -1 -9 -12q5 -34 5 -25v-61q0 -2 3 -22q2 -14 -2 -33q0 -7 2 -49q-4 -27 -4 -43q1 -5 0 -17q-2 -21 0 -32q7 -28 9 -39q0 -14 2 -41
q-11 -14 -21 -16q-6 -2 -27 1q-32 18 -26 51q4 19 10 53q0 -1 -4 32q-3 24 -3 54q1 8 4 70q2 8 -1 27q-5 27 -5 29q0 -2 4 38q1 7 -2 34q3 31 3 34q3 29 3 82q2 5 5 14q6 6 26 17q23 -3 51 -8q14 -9 17 -34l2 -38q5 -17 15 -49q1 -12 24 -78q2 -22 3 -44q3 -34 8 -39
q1 0 2 -1l2 2q3 18 6 47q-2 18 -2 53q3 22 14 65q-3 24 -1 29q7 28 13 55.5t28 36.5q5 1 13.5 1.5t17.5 -1.5q7 0 28 -19q18 -34 15 -113q1 -34 8 -72q6 -30 3 -50v-50q-2 -15 -2 -37q0 -65 16 -154z" />
    <glyph glyph-name="N" unicode="N" horiz-adv-x="356" 
d="M201 71v0v0v0zM272 562q9 -19 3 -52q-5 -26 -10 -53q-4 -7 -2 -27q3 -27 2 -34q0 -11 -1 -31l-4 -28q-3 -20 -2 -32q0 -15 -1 -45q8 -14 8 -31q0 -19 -11 -52q-3 -23 -5 -62q2 -22 -8.5 -38.5t-31.5 -19.5q-29 1 -34 35q-10 18 -25 54q0 17 -4 51q-18 38 -31 68
q1 24 -6 51q-5 12 -14 33q-3 14 -10 41q-1 0 -3 -2q0 -8 1 -97q1 -66 -6 -94q0 -4 2.5 -12t2.5 -10v-51q-3 -24 2 -35q2 -10 -2 -29q-14 -20 -38 -20q-17 0 -25 15q-1 16 2 48q5 44 5 51q-5 44 0 63q5 8 4 23l-2 22q3 16 1 32q-10 22 -2 46q6 13 8 24q1 8 -2 23q5 46 3 89
q0 3 -3 49q-2 32 1 50q5 9 16 16q5 3 11 3q27 0 48 -53q-1 -5 4.5 -14t6.5 -11q0 -9 -2 -39q5 -10 12 -27q3 -16 21 -74q14 -46 12 -75q22 -23 21 -71q5 -7 7.5 -22.5t7.5 -23.5q8 13 8.5 41.5t6.5 35.5q1 8 -2 22q-4 18 -4 23q-2 15 0 36q-6 57 -6 63q0 1 5 22
q4 17 3.5 26.5t4 30t4.5 23.5q2 10 -3.5 31t-5.5 29q0 23 24 34q19 -2 33 -18q1 -7 5 -21z" />
    <glyph glyph-name="O" unicode="O" horiz-adv-x="321" 
d="M238 403q-1 -6 -5 -22q-1 -8 0 -18q6 -23 5 -42q-2 -34 -1 -47q-5 -121 -62 -191q-25 -26 -56 -26q-7 0 -12 1t-18.5 14t-21.5 14q-2 1 -11 11q-28 79 -25 111q-2 20 4 111q-5 13 -4 37q0 24 5 35q-1 21 -1 57q3 21 11 45q1 18 8 66q3 13 17 24t25 9q14 9 46 16
q37 -10 66 -52q10 -26 21 -86q0 -11 4.5 -34.5t4.5 -32.5zM174 438q0 10 5 38q-2 13 -14 36q-1 16 -11 34t-25 20q-4 -3 -10 -6q-7 -20 -22 -54q0 -1 3 -68q-13 -42 -5 -140q-4 -23 -3 -32q5 -10 6 -22q-3 -13 -8 -37q8 -31 8 -30q-5 -4 -8 -10q6 -10 16 -26q0 -9 7.5 -23
t16.5 -14q6 0 11 7.5t10 20.5q11 21 12 27q5 26 10 45q-2 25 -1 36q14 29 14 76q0 54 -12 122z" />
    <glyph glyph-name="P" unicode="P" horiz-adv-x="314" 
d="M249 513q2 -12 -4 -33q-7 -28 -7 -29q-3 -26 -16 -79q-7 -8 -23 -24q0 -10 -14 -46q-8 -6 -20.5 -17t-35.5 -33q-5 -9 -37 -41q-7 -20 1 -37q1 -13 0 -27l4 -36q3 -22 -2 -37q-15 -18 -39 -18q-28 0 -36 28q-3 10 -3 18q0 10 4 27q6 24 8 36q-5 23 -6 34q3 14 6 40
q-2 13 -6 40q0 1 6 37q-2 44 -2 35q3 12 3 29q0 4 -2 39q-2 24 1 38q1 22 0 63q-5 34 7 73q4 6 26 13q11 2 32 -5q27 -11 31 -12q9 4 16 4q6 0 17.5 -5t22.5 -6q24 -7 44.5 -28.5t23.5 -40.5zM192 523q-18 19 -48 19q-5 2 -51 12q-10 -10 -4 -43q1 -5 -3 -38q5 -50 5 -77
q0 -41 -8 -63q-1 -17 6 -45q8 13 29 35q2 10 9 30q4 6 22 30q3 12 10 33q35 33 35 81q0 12 -2 26z" />
    <glyph glyph-name="Q" unicode="Q" horiz-adv-x="322" 
d="M107 137q0 7 1 21q10 13 17 17q21 4 28 -16q0 -9 1 -21q8 15 9 23q4 20 10 43q-2 25 -1 36q14 29 14 76q0 54 -12 122q0 10 5 38q-2 13 -14 36q-1 16 -11 34t-25 20q-4 -3 -10 -6q-7 -20 -22 -54q0 -1 3 -68q-13 -42 -5 -140q-4 -23 -3 -32q5 -10 6 -22q-3 -13 -8 -37
q8 -31 8 -30q-5 -4 -8 -10q6 -10 16 -26q0 -2 1 -4zM216 -19q6 -24 -16 -34q-13 -2 -24 2q-54 -8 -82 98q0 9 1 19q-9 9 -28 20q-2 1 -11 11q-28 79 -25 111q-2 20 4 111q-5 13 -4 37q0 24 5 35q-1 21 -1 57q3 21 11 45q1 18 8 66q3 13 17 24t25 9q14 9 46 16q37 -10 66 -52
q7 -20 13 -40q9 -26 8 -46q0 -11 4.5 -34t4.5 -33q-1 -6 -5 -22q-1 -7 0 -18q6 -24 6 -42q-1 -23 -2 -47q-1 -117 -62 -191q-6 -6 -13 -11l10 -46q9 -26 34 -38q6 -2 10 -7z" />
    <glyph glyph-name="R" unicode="R" horiz-adv-x="350" 
d="M275 80q-6 -21 -29 -21q-12 0 -20 7q-12 12 -12 53q-7 19 -10 38l-16 32q-1 6 -5 37q-5 11 -25 77q-1 7 -13 22q-2 0 -3 1q-15 -7 -21 -36q-17 -19 -24 -30q-1 -6 2 -21q3 -18 3 -25q0 -6 -1 -10q1 -6 0 -18q4 -49 4 -52q6 -15 6 -31q0 -22 -13 -36q-19 -9 -43 -8
q-8 11 -15 15q1 16 5 47q11 51 5 81q1 7 1 16q0 5 -12 96q0 8 1 24q9 29 5 50q0 4 -2 17q-1 10 -1 15q10 64 4 133q-9 -1 -29 1q-14 14 -4 42q13 6 24 8q25 1 75 -4q10 0 34 3t37 3q21 0 36 -5q19 -3 25 -28q-5 -15 -12 -66q-5 -31 -23 -47q-7 -25 -33 -68q6 -7 19 -21
q5 -18 18 -53q1 -22 29 -64q5 -11 5 -25t3 -22q1 -2 3.5 -6.5t4.5 -7.5q2 -12 5 -20t8 -22q6 -54 4 -71zM175 550q-3 8 -12 15q-3 0 -9 -3q-7 1 -18 0q-13 -1 -17 -1q-3 0 -10 1.5t-11 0.5q-4 -8 -2 -50q2 -46 -2 -62q1 -9 3 -29q-3 -9 -6 -26q3 -17 8 -47q7 16 21 45
q12 18 27 50q4 27 11 63q1 4 11 22q7 13 6 21z" />
    <glyph glyph-name="S" unicode="S" horiz-adv-x="305" 
d="M231 199q6 -31 -11 -60q-2 -20 -33 -62q-31 -25 -60 -25q-16 0 -30 8q-8 5 -23 6q-16 8 -32 17q-24 13 -24 30q0 5 2 10q8 29 31 29q5 0 11 -2q10 -25 36 -37q22 -12 45 -10q30 27 30 61q0 12 -5 34q-5 27 -6 36q-2 4 -21 34q1 13 -16 34q-23 30 -27 39q-18 15 -43 39
q-6 15 -11 35q-14 15 -15 34q-1 23 -7 33q6 33 33 80q3 15 13 34q25 19 86 5q14 -5 39 -18q5 -26 8 -53q10 -10 10 -27q0 -3 -9 -46q-13 -18 -32 -18q-16 0 -27 15q-10 33 7 61l-4 28q-5 17 -21 27q-4 2 -8 -1q-33 -38 -33 -94q0 -13 2 -34q19 -12 35 -37t24 -31
q7 -1 19 -10q19 -47 63 -133q1 -1 4 -31z" />
    <glyph glyph-name="T" unicode="T" horiz-adv-x="323" 
d="M251 603q10 -23 -3 -35q-13 -2 -39 -1q-9 -6 -17 -6q-4 0 -11.5 1.5t-10.5 1.5q-4 0 -8 -1q-4 -5 -4 -12q0 -5 3 -15.5t3 -14.5v-54q0 -1 -3 -24q-1 -19 0 -27.5t0 -25.5q0 -13 6 -29v-16l-1 -11v-52q-7 -50 -3 -66q0 -2 -2 -47q0 -6 3 -52q3 -35 -2 -40q-11 -16 -34 -16
q-21 0 -37 15q-3 4 -3 11t6 27t4 28q1 21 4 60q2 15 1 22q3 11 2 33l-1 33q-3 13 -7 37q1 -11 6 63q-1 14 -2 42q5 17 3 27q-4 31 -3.5 36t-0.5 18v18q0 -2 2 13q2 9 -6 13q-23 3 -64 3q-18 7 -18 26q0 15 14 22q17 -1 50 -8q7 0 17 2q9 -1 26 -3q16 7 27 9q2 0 4 -2
q27 9 51 -1q8 1 25 4q8 -2 23 -6z" />
    <glyph glyph-name="U" unicode="U" horiz-adv-x="311" 
d="M229 419q2 -22 -1.5 -41.5t-8.5 -57.5q-1 -22 -2 -96q0 -11 -7 -37q2 -60 -21 -100q-6 -2 -16 -14l-27 -8q-19 -6 -31 -6t-20 5q-4 -2 -10 -2q-15 0 -46 26q-6 9 -12 41q-5 12 -3 41q1 6 -2 19l-3 13v54q0 107 -1 55q1 28 11 58q-3 29 0 86q5 13 5 31q0 7 -1 20t-1 19
q0 12 4 20q-1 -3 -1 26q0 17 14 26q21 11 39 -10q4 -7 6 -23q-2 -8 -5 -25q1 -9 2 -27q0 -4 -3.5 -24t-2.5 -31q1 -18 1 -52q-4 -5 -3 -18q2 -15 0 -22q-4 -18 -9 -65q-1 -8 5 -23q4 -7 -1 -35q0 -19 1 -54l1.5 -9.5t1.5 -13.5q1 -11 2.5 -23t14.5 -18q15 -23 38 -20
q8 3 16 19q0 -4 -1 69q-1 46 8 67q1 35 7 56q1 5 -3 18q0 29 3 87q-1 16 -3 45q4 19 -2 47q-7 34 -7 44q0 19 10 34q9 4 21 7q39 -2 39 -26q0 -5 -2 -17t-2 -18v-48q0 9 -4 -29q5 -14 12 -40z" />
    <glyph glyph-name="V" unicode="V" horiz-adv-x="296" 
d="M227 557q-3 -11 -5 -18.5t-15 -111.5q-14 -43 -14 -41v-43q-6 -12 -16 -36q0 -14 -1 -44q-8 -26 -16 -81t-20 -91q-7 -10 -13 -21q-10 -14 -19 -10q-3 1 -19 5l-10 10q-6 23 -16 60q0 13 -1 38q0 38 -7 97q-5 33 -10 67q-9 60 -9 73v45q1 11 -3 30q-6 24 -7 31
q0 12 -2 36q-1 4 -7 17q-4 9 -2 19q2 13 14.5 21t23.5 5q11 -6 19 -25t5 -31l3 -23q3 -15 1 -23q5 -35 14 -101q1 -2 -1 -24q-2 -3 -2 -10q0 -12 7 -47q7 -42 8 -53q1 -27 6 -71q0 -1 1 -1q8 10 8 37q4 8 11 30q6 44 12 70q1 13 0 23q5 16 9 80q4 58 14 76q4 14 3 38.5
t1 35.5q6 9 23 21q5 0 21 -8q11 -15 11 -51z" />
    <glyph glyph-name="W" unicode="W" horiz-adv-x="479" 
d="M410 591q-3 -46 -3 -91q-6 -12 -9.5 -47t-13.5 -55q2 -10 3 -33q-3 -15 -7 -45q-1 -6 -19 -59q1 -9 -3 -18q-5 -15 -9 -37q1 -15 1 -44q-1 -2 -26 -59q-16 -37 -40 -38q-4 4 -15 19q-6 24 -17 69q-1 14 -5 42q0 1 -2 1q-4 25 -16 74q1 22 -13 61q0 3 -1 33q-6 24 -16 76
q-4 1 -6 -3q-3 -7 -4 -8q1 -21 -7 -69q0 -15 -1 -30q0 -19 -7 -34q0 -14 -1 -43q-9 -21 -11 -59q-3 -20 -9 -59q-10 -30 -34 -76q-10 -10 -24 -7q-11 4 -20.5 19t-7.5 29q2 19 -1 34q-5 12 -6 31q0 27 -1 28q-3 11 -8 33q0 4 2 13t2 14q0 8 -1.5 25t-1.5 24q-4 11 -6 43
q-1 15 -9 40q0 3 1 55q-1 7 -1 39q0 4 -6 19q-3 8 -5 28q-9 58 -9 55q0 18 9 28q17 10 34 0q18 -22 17 -46q9 -14 9 -34q0 -10 -3 -29.5t-3 -28.5q6 -10 8 -18q2 -24 4 -72q12 -36 13 -62q-4 -14 4 -52q-1 -16 1 -49l2 -2q1 0 2.5 1t1.5 2q3 25 8 75q4 16 5 28q-6 45 15 91
q1 17 11 59q1 4 4 71q1 45 28 58q10 2 22 -5q8 -10 10 -15q6 -19 7 -30q10 -20 12 -58q4 -7 14 -21q3 -5 2.5 -17.5t1.5 -17.5q8 -11 13 -25q1 -24 5 -50q4 -18 2 -37q-2 -4 2.5 -14.5t8.5 -20.5q1 -3 6 -31q2 -22 8 -54q10 5 10 28q0 16 -6 44q0 24 10 72q4 17 12 49
q1 19 -1 49q8 47 18 115q1 5 19 35q17 10 23 10q9 -1 24 -16z" />
    <glyph glyph-name="X" unicode="X" horiz-adv-x="340" 
d="M269 565q-5 -14 -16 -51q-1 -5 -4 -18q-8 -15 -15 -41q-4 -15 -18 -29q-4 -11 -13 -32q-12 -21 -32 -61q4 -8 13 -22q4 -22 11 -31q14 -18 14 -49q0 -35 17 -68q1 -11 6 -28q9 -20 14 -45q0 -9 -4 -21q-3 -3 -18 -8q-21 0 -33 17q-1 14 -6 35q-14 26 -30 76q-9 31 -19 62
q0 1 -2 1q-3 -3 -5 -8l-27 -102q-10 -12 -20 -44q-8 -28 -27 -41q-20 -7 -33 7q-4 8 -4 18q0 20 16 44q7 24 18 44q5 25 15 74q48 70 40 92q-2 8 -28 76q0 2 1 11q-10 22 -29 67q-1 12 -5 34q-3 9 -15 33q-2 9 6 23t20 16q6 2 31 -14l6 -9q4 -13 6 -31q9 -15 9 -55
q8 -15 14 -47q8 -35 15 -52q0 -1 2 -2q0 1 12 32q11 26 26 43q2 8 5 26q4 5 21 61q12 41 36 41q11 0 25 -8z" />
    <glyph glyph-name="Y" unicode="Y" horiz-adv-x="340" 
d="M270 595q6 -10 6 -25q0 -30 -20 -55q-2 -17 -8 -50q-11 -22 -25 -43q-7 -15 -15 -46q0 -7 -11 -20q-16 -19 -20 -25q-1 -14 1 -30q1 -38 -2 -68q0 -6 -4 -23q-3 -13 -2 -26q7 -17 4 -32q-1 -6 1 -53q1 -30 -23 -45q1 0 -28 6q-19 12 -19 33q0 7 3 23t2 25.5t2 27.5
q5 24 6 27v55q0 -7 2 22q1 14 -4 28q0 2 -26 45q-8 15 -24 47q-7 27 -11 47q-10 24 -21 44q-1 3 -5 30q-4 16 -14 43q3 41 31 46q2 0 7 -3q1 -1 14 -15q7 -14 17 -29q6 -19 8 -45q6 -19 19.5 -51.5t28.5 -52.5q1 -4 2 -23q0 -14 7 -23q2 17 17.5 61.5t18.5 65.5q1 8 19 42
q3 14 16.5 41.5t34.5 27.5q7 0 15 -4z" />
    <glyph glyph-name="Z" unicode="Z" horiz-adv-x="299" 
d="M224 89q-1 -6 -4 -11q-7 -20 -24 -20q-6 0 -21.5 5t-22.5 2q-6 0 -17 -2q-2 0 -15 6q-29 -1 -84 -2q-6 1 -13 6q-6 12 -3 27q9 25 14 37t16 75q3 5 10 27q0 28 26 72q1 12 2.5 25t9.5 26q2 17 20 61q4 50 27 114l-2 2q-6 1 -31 -1q-14 -1 -28 6q-33 -5 -45 6q-3 15 6 41
q11 5 49 -3q9 0 24.5 1t22.5 1q21 14 39 14q17 0 30 -13q3 -6 5 -17q0 -12 -2 -32q-9 -25 -28 -64q0 -25 -9 -48q-11 -27 -23 -54q-10 -22 -19 -79q-1 -3 -16 -42q-2 -11 -5 -32q-15 -49 -15 -50q-9 -31 -10 -50l4 -5q5 0 16 1q33 9 50 -1q7 0 17 7q-9 19 -9 49q-1 48 -1 50
q3 7 13 21q11 6 19 6q13 0 22 -25q1 -5 4 -17q-3 -33 1 -120z" />
    <glyph glyph-name="bracketleft" unicode="[" horiz-adv-x="197" 
d="M134 606q1 -20 -18 -23t-36 -5q-7 -5 -3 -11q2 -9 1 -28q-1 -27 -1 -30q-12 -37 0 -119q1 -6 -3.5 -22t-2.5 -23q-6 -37 3 -86q17 -35 9 -100q-4 -27 -5 -48l4 -4q20 0 28 -5q3 -9 1 -29q-22 -7 -36 -5q-13 -9 -23 -9q-11 0 -21 9q-6 14 0 55q-1 10 -5 34q-3 21 -3 22v44
q0 27 -1 34q-2 16 2.5 45.5t3.5 39.5q-2 24 -8 57q1 -5 3 35q0 18 -1 33q1 22 4 66q-4 30 -3 73q10 15 29 7q4 2 12 5q5 -1 35 -1q18 1 33 -8q1 -3 2 -3z" />
    <glyph glyph-name="backslash" unicode="\" horiz-adv-x="234" 
d="M211 559q-10 -18 -24 -52q-2 -17 -7 -47q-8 -23 -23 -67q-2 -12 -5 -36q-7 -19 -21 -56q-2 -31 -24 -69q-7 -27 -15 -92q-4 -6 -11 -49q-5 -28 -31 -35q-37 -2 -37 31q0 31 25 68q1 24 17 73t17 65q4 20 13 56q9 24 25 75q5 27 11 54q8 37 20 54q7 17 13 35q10 21 28 26
q15 1 24 -6t5 -28z" />
    <glyph glyph-name="bracketright" unicode="]" horiz-adv-x="155" 
d="M121 467q-1 -17 0 -33q2 -41 0 -47q-5 -15 -5 -43q0 -9 2 -26q3 -20 3 -27q1 -14 0 -42q0 -35 0 -28v-40q0 -1 -4 -21q-3 -23 -5 -33q0 2 4 -28q2 -19 -3 -31q-11 -9 -21 -9t-23 9q-17 0 -37 5q-3 9 1 29q18 9 29 5l4 4q-1 20 -5 48q-8 60 8 100q9 38 4 86q1 7 -3.5 22.5
t-2.5 22.5q13 82 -1 119q0 55 1 62q0 2 -3 5t-34 6q-19 2 -22 21q4 7 4 6h4q14 15 35 7q10 1 19 2q12 1 22 -5q15 5 26 -4q4 -6 4 -17q0 -5 -4 -33q-2 -22 0 -33q6 -14 5 -31z" />
    <glyph glyph-name="a" unicode="a" horiz-adv-x="300" 
d="M213 381q-6 -12 -3 -26q3 -7 2 -15q-3 -17 -3 -24t-4 -34q0 -2 2 -9.5t2 -11.5q0 2 -5 -42q7 -28 -3 -72q4 -20 4 -41l2 -34q-1 -21 -16 -31q-30 8 -50 20q0 14 -2 42q-16 -22 -32 -45q-19 -24 -45 -24q-33 3 -36 66q1 14 5 26q7 18 18 54q1 11 5 30q29 70 49 71
q3 5 13 22q28 22 29 39q-2 26 -4 51q-3 31 -23 36q-16 -22 -20 -38q2 -10 2 -30q7 -6 19 -18q-3 -34 -33 -34q-18 0 -35 14t-17 32q0 5 2 10q-2 7 -2 14q0 29 28.5 57.5t55.5 31.5q10 4 32 9q27 -4 58 -48q4 -14 5 -48zM141 169q5 6 5 13q0 1 -3 21t-4 45q-10 -10 -18 -30
t-18 -30q-7 -20 -18 -70q2 0 4 1q6 10 20 27q11 5 32 23z" />
    <glyph glyph-name="b" unicode="b" horiz-adv-x="322" 
d="M241 272q0 -2 -6 -75q0 -23 -11 -61q0 -1 -8 -39q-5 -26 -26 -38q-5 -3 -32 4q-11 0 -26 -2q-46 2 -48 35l-3 3q-1 0 -2 -0.5t-1 -1.5q3 -41 -2 -52q-28 -5 -47 0q-2 5 -8 17q-1 6 3 13q0 43 3 52q2 4 -1.5 16t-3.5 14q1 16 2 47q-9 21 -7 42q12 26 2 63q1 -1 7 48
q-3 18 7 92q2 8 0 38q3 20 -2 60q-4 14 6 24t23 13q15 0 22 -7.5t7 -11.5q2 -7 5 -23q5 -69 -13 -108q-4 -30 -4 -40q9 2 38 42q48 16 70 16q9 -5 13 -9q39 -19 39 -67q0 -10 -2 -24q-1 -18 -2 -22v-26q6 -18 8 -32zM186 224q-5 42 -5 43q0 5 1.5 19t1.5 20q-1 8 -6.5 21.5
t-5.5 20.5q0 6 1 10.5t2 11.5q-6 35 -24 35q-7 -5 -18 -22.5t-22 -20.5q-14 -18 -23 -44t-14 -32q-8 -34 4 -65q1 -15 5 -21t34 -69q1 -3 -1 -7q2 -3 7 -9q17 -2 26 -2q18 6 26 35q1 4 5 12t4 9v44q0 1 1 5t1 6z" />
    <glyph glyph-name="c" unicode="c" horiz-adv-x="285" 
d="M206 221q9 -36 -7 -110q-3 -11 -17 -34q-7 -5 -24 -7t-30 -11q-7 -4 -17 -4q-39 0 -53 39q-3 9 -21 27q-7 15 -8 41q-1 34 -4 103q1 6 12 76q-1 8 -1 17q0 20 6 50q6 23 12 47q4 13 20 22.5t24 6.5q7 -4 18 -4h11q9 1 13 1q16 0 29 -6q34 -23 29 -144q-10 -28 -36 -28
q-13 0 -19 9q3 49 3 51q-5 6 -9.5 37.5t-18.5 43.5h-6q-10 -9 -12 -47q-7 -19 -7 -45v-15q1 -10 1 -15q0 -34 -14 -58q5 -13 1 -67q10 -39 10 -41q1 -38 21 -50q36 6 36 48q0 9 -1.5 26.5t-1.5 25.5q0 42 44 37q14 -10 17 -22z" />
    <glyph glyph-name="d" unicode="d" horiz-adv-x="332" 
d="M256 98q3 -11 -2 -30q-2 -2 -5 -3.5t-14.5 -3.5t-17.5 -2q-13 0 -20 7q-2 18 -5 54l-2 2q1 -42 -45 -67q-19 -2 -55 2q-19 20 -24 34q-14 37 -23 55q-4 22 -10 75q-4 10 -8 32q-2 14 6 40q2 14 1 19q-6 24 -4 32q2 7 15 36q3 19 20 38q8 37 47 53q7 0 16.5 -4.5
t14.5 -4.5t11 2q15 -11 16 -10q-3 14 -8 41q0 20 -5 40q0 7 -1 21q2 4 2 14q12 13 25 24q16 0 32 -4q5 -2 6.5 -18.5t2.5 -31.5q7 -23 7 -50q0 -34 -12 -76q13 -32 9 -49q-2 -11 4 -57l-3 -36q5 -52 29 -174zM162 341q-1 12 -2.5 24.5t-11.5 26.5q-3 27 -21 27q-9 0 -18 -10
q-4 -15 -4 -30q-17 -53 -17 -80q7 -16 6 -34q-3 -31 -3 -33q0 -1 5 -32q3 -19 10 -29q2 -19 4 -39q4 -24 17 -24q6 0 13 4q8 16 5 38q2 24 13 49q0 25 1 60q8 47 0 74q0 1 1.5 4t1.5 4z" />
    <glyph glyph-name="e" unicode="e" horiz-adv-x="315" 
d="M236 232q0 1 -3 -29q-1 -12 2 -27q3 -11 0 -19q-12 -19 -27 -52q-8 -23 -28 -30q-9 -1 -26 -5q-27 -12 -31 -13q-11 -3 -26 1q-10 10 -31 24q-13 9 -17 23q-4 11 -7 21q-14 15 -16 37q-3 26 -9 37l6 26q-2 19 -2 26q5 11 14 35q-3 8 -3 19q0 18 8 46q9 32 9 34
q13 22 37 41.5t43 19.5q7 11 17 12q9 -1 16 -1.5t30 -1.5q25 -13 33 -40q3 -9 7 -45q-1 -3 -1 -34q1 -20 -17 -30q-47 -28 -86 -37q-20 -19 -41 -20q-1 -2 -3 -5q1 -18 2 -37q2 -23 9 -36q2 -26 3 -30q6 -17 26 -27q9 2 15 4q4 -1 8 -1q24 0 24 38q0 12 -3 20q1 28 7 82
q12 15 27 15q14 0 25 -11q2 -11 9 -30zM172 354q-4 5 -5 26q-1 18 -11 30q-11 -2 -32 -5q-6 -6 -7.5 -14t-3.5 -14q-24 -37 -21 -66l3 -3l35 14q12 -1 21.5 0.5t16.5 13t4 18.5z" />
    <glyph glyph-name="f" unicode="f" horiz-adv-x="277" 
d="M205 391q-5 -14 -17 -18.5t-41 -6.5q-18 4 -30 -3q0 -7 -1 -19q-1 -24 7 -77q3 -17 -1 -76q-2 -15 -2 -26q0 -7 3 -31.5t4 -52.5q-2 -11 -14.5 -19.5t-26.5 -8.5q-10 0 -17 4q-13 22 -13 50q0 16 5.5 50t4.5 51q0 13 1 40q-3 15 -9 46q2 15 -1 65l-2 2q-14 -2 -24 -2
q-23 10 -23 34q0 16 15 26q5 0 21 -2q4 3 2 16q-2 21 -2 20q6 20 1 50q-1 9 0 25q2 20 3 24q4 26 38 45q18 9 33 7q2 0 20 -1q27 5 43 -15q13 -17 13 -45q0 -24 -10 -43q0 -1 -16 -11q-22 -4 -27.5 24t-20.5 26q-2 0 -12 -7q2 -15 1 -29q-1 -3 -3.5 -18.5t-2.5 -24.5
q0 -22 14 -37q16 1 57 4q11 -2 22 -13t8 -23z" />
    <glyph glyph-name="g" unicode="g" horiz-adv-x="289" 
d="M213 68q1 -17 -7 -37q0 -2 4 -29q-3 -17 -8 -51q-1 -22 -27 -39.5t-47 -15.5q-18 7 -43 18q-10 8 -29 26q-10 27 -22 48q0 27 11 38q7 1 21 4q12 -6 17 -13q3 -43 34 -58q18 -2 30 6q2 16 1 63q-2 72 -2 78q-1 0 -2 1q-12 -12 -21 -23q-35 -23 -43 -23q-5 0 -9 1
q-37 22 -46 65q-4 35 -8 71q3 41 8 124q-4 52 5 108q13 15 33.5 20t40.5 9q8 -2 16 1q3 -5 14.5 -7.5t14.5 -5.5q12 5 26.5 -9.5t10.5 -27.5v-116q0 -16 6 -34l10 -30q-1 -20 1 -85q-1 -8 6 -33q1 -14 4 -44zM133 265q0 -8 3 39q1 23 -7 41q0 18 1 50q-6 2 -7 9.5t-3 8.5
q-14 1 -21 -7q-20 -52 -30 -111q-1 -10 2 -27q3 -21 3 -29q-1 -14 4 -80q3 -9 11 -25q7 -3 12 -3q38 25 38 64q0 10 -4 35q-3 22 -2 35z" />
    <glyph glyph-name="h" unicode="h" horiz-adv-x="300" 
d="M214 266q0 4 -8 -77q1 -3 -3 -39q4 -18 4 -49q3 -16 -13 -36q-2 -1 -26 -3l-2 -3q-5 1 -12 5l-3 33q-3 8 -4 19q3 20 -2 63q-1 9 5 40q-3 68 -3 66q4 14 3 33q-2 27 -2 29q7 24 7 35q0 13 -7 22q-13 -2 -21 -7q-16 -19 -31 -38.5t-13 -39t-6 -133.5q16 -26 13 -76
q1 -13 0 -39q-2 -3 -4 -9q-6 -6 -15 -7t-16 -2q-21 4 -21.5 25.5t-2.5 46.5q2 14 3 42q-3 7 -8 21q-2 11 -2 28q0 1 -1 32q-1 20 4 26q4 26 3 54q-1 5 -5 19t-4 15v58v13q4 13 4 21v53q1 6 -3 27.5t-4 32.5q0 30 26 30q6 0 12 -1q9 -6 22 -22q1 -41 4 -99q-2 -22 -5 -63
q20 11 32 40q8 6 41 11q11 -2 28 4q23 -11 29 -33q3 -11 2 -38q0 -24 -6 -79q-1 -10 4 -26q6 -19 7 -25z" />
    <glyph glyph-name="i" unicode="i" horiz-adv-x="193" 
d="M85 582q5 -8 5 -20q0 -16 -10 -29.5t-26 -12.5q-8 4 -18 15q-18 7 -18 28q0 8 6 15q18 10 29 13q17 -2 32 -9zM101 159q0 -5 3.5 -26.5t3.5 -33.5q0 -43 -40 -43q-5 3 -11 11q-1 -1 -2 -1t-3 -1q-2 3 -3 3q-2 11 -2 26v10q0 32 -10 53q3 19 4 57q-4 9 -8 27q0 10 4 40
q-2 10 -4 30q2 31 0 80q-5 24 -6 23q4 15 13 34q14 2 37 8q14 -7 17 -18q1 -11 -1 -30q-2 -25 -2 -33q0 -18 5 -31q0 3 -2 -53q13 -61 13 -87q0 -24 -6 -45z" />
    <glyph glyph-name="j" unicode="j" horiz-adv-x="218" 
d="M124 568q2 -4 2 -8q0 -26 -22 -36q-7 -1 -17 3q-10 -1 -27 -1q-20 16 -10 40q9 5 19 18q4 2 12 5q12 -2 25 -6q7 -5 18 -15zM137 21q-2 -51 -3 -92q-7 -21 -18 -28q-15 -7 -33 -7q-36 0 -55 17q-6 12 -6 26q0 24 21 28q4 -4 13 -10q17 8 24 18q-3 21 -8 64l-6 93
q0 5 -8 41q-1 38 -6 111q-4 6 0 21l6 26q0 7 1 21q-12 26 -4 58q1 16 2 34t9 32q10 3 22 4q33 2 33 -41q0 -11 -4 -17q-1 -7 0 -18q6 -13 6 -27q0 -16 -10 -39q-2 -7 0 -22q3 -21 3 -23q0 -21 2 -61q-2 -14 -1 -43q10 -29 8 -64q6 -30 12 -102z" />
    <glyph glyph-name="k" unicode="k" horiz-adv-x="317" 
d="M223 503q17 -8 17 -22q0 -3 -21 -47q-13 -19 -35 -28t-28 -16q17 -5 48 -23q15 -22 15 -60q0 -26 -8 -45q0 -5 1 -14q1 -12 2 -16q2 -8 -4 -50q0 2 1 -42q-1 -10 4 -35.5t3 -36.5q-4 -11 -17.5 -19.5t-26.5 -8.5q-5 0 -9 1.5t-12 21.5q-2 10 -1 37q2 23 -5 36q0 7 8 79
q1 10 0 18q-4 6 -1 20q3 16 1 21q-1 8 -2 29q-5 9 -17 27q-5 1 -10 1q-26 0 -46 -30q0 -9 -1 -26q11 -38 10 -59q-1 -14 3 -35q-1 -16 -3 -47q-1 -3 -1 -8t2 -17.5t2 -18.5q0 -27 -27 -33q-5 -2 -15 -3q-27 7 -26 39q0 12 6 42q-3 34 -4 99q-1 9 -3 47q6 40 0 62
q-11 21 1 59q-3 17 -3 11v44q0 2 -3.5 11.5t-3.5 14.5q-1 6 9 58q0 11 8 32q17 22 44 20q4 -3 7 -13.5t2 -14.5q-3 -22 -1 -77q-5 -44 -5 -108l1 -2q18 22 53 66q13 4 45 33q30 26 46 26z" />
    <glyph glyph-name="l" unicode="l" horiz-adv-x="198" 
d="M109 524q-12 -213 -12 -204q-2 -10 -7 -30q0 -2 5 -47q-1 -17 10 -86q9 -59 9 -51q0 -29 -31 -37q-55 1 -55 50q0 15 6.5 46.5t5.5 42.5q0 6 -3 25q-3 15 -3 26q0 12 2 36.5t2 35.5q-10 52 -7 72q4 14 11 42q-1 20 0 61q1 3 2 19q0 5 -1 18t-1 20q0 36 24 45q46 5 46 -58
q0 -14 -3 -26z" />
    <glyph glyph-name="m" unicode="m" horiz-adv-x="425" 
d="M341 106q2 -14 -9 -31.5t-26 -17.5q-7 0 -14 5q-6 2 -19 10q-7 16 -7 36q0 11 4 39q3 25 2 40q0 9 1 28t1 27q0 4 -3.5 16t-3.5 19q-1 10 4 44q-2 25 0 34q5 30 0 46q-6 11 -19 12q-12 -20 -36 -59q-5 -22 -3 -37t-1 -37q-6 -14 -5 -40.5t-1 -35.5q-1 -2 -3 -24
q7 -18 7 -33q0 -6 -2.5 -27.5t-1.5 -40.5q-9 -27 -36 -24q-25 6 -35 42q1 16 6 45q1 10 -2 36t-3 37q3 17 11 50q0 2 -2 14.5t-2 20.5q0 5 8 26l-1 25v26q-1 13 -7 24q-2 1 -3 0q-55 -11 -48 -78q-3 -16 -8 -41q1 -21 -5 -69q0 -6 2.5 -21t2.5 -23q0 -14 -5 -23l1 -5
q-1 -8 2 -24t3 -24q0 -20 -16 -33q-5 -2 -11 -2q-19 0 -37 15q-10 18 -5 51q3 36 5 154q2 9 6 26q5 6 10 25q2 8 -1 17.5t-5 17.5t0 18q3 14 3 19q1 5 0 15q-5 5 -5 14q0 13 12 25.5t25 12.5t21 -15q-1 -9 6 -28q25 38 68 38q16 0 29 -8q6 -1 12 -35q2 -1 11 7q11 12 13 14
q16 14 48 35q25 1 37 -8q7 -8 8 -13q1 -1 4 -26q6 -15 9 -55q3 -8 6 -24q0 -6 -6 -31q1 4 1 -25v-43l2 -3q1 -3 0 -8q-2 -7 -8 -19q-2 -16 2.5 -34.5t9.5 -36.5q0 1 2 -44z" />
    <glyph glyph-name="n" unicode="n" horiz-adv-x="319" 
d="M230 119q0 -34 -5 -48q-11 -15 -26 -16l-24 2q-1 1 -3 1q-2 24 -4 47q-2 29 4 50q-1 6 -7 14q0 -6 -4 13q1 -7 2 39q1 16 4 32q3 10 1 30q-1 26 -1 33q5 26 11 83q-1 3 -12 13q-20 -2 -39 -29l-18 -9q-27 -35 -27 -39q0 -9 -2 -35q-2 -22 -1 -28q4 -7 4 -48
q-1 -5 -2 -13.5t-2 -12.5q-3 -7 7 -23q2 -5 2 -12q0 -4 -3 -26q-3 -17 -1 -30q6 -29 -8 -44q-12 -6 -49 0q-10 14 -10 28q0 9 5.5 26t6.5 27q1 9 -2 44q-2 26 3 29q3 21 1 29q-4 21 -3 35q1 21 1 24q-2 20 -11 60q3 9 5 26q-4 10 -2 59q5 6 29 16q17 4 23 -14q4 -12 4 -32
q18 6 44 44q6 1 19 3q9 6 30 17q5 2 47 -11q13 -18 13 -45q0 -9 -2 -28t-2 -27q4 -13 0 -48l1 -33q6 -14 3 -31q-3 -36 -9 -70q3 -37 9 -72z" />
    <glyph glyph-name="o" unicode="o" horiz-adv-x="308" 
d="M231 281q1 -16 -3.5 -28.5t-4.5 -15.5v-47q-2 -17 -15 -39q-2 -12 -5 -32t-23 -35q-4 -3 -35 -21q-14 -4 -37 3q-4 0 -14.5 -2.5t-15.5 -2.5q-11 0 -19 7q-2 4 -21 27q-6 7 -16 25q-1 48 3 78q-3 38 -3 29q10 22 15.5 66t19.5 70q-1 10 -1 30q-4 11 23 49q8 4 23 11
q3 4 9 11q23 -2 47 -4q30 -7 35 -35q13 -29 28 -78q-2 -14 5 -48q3 -6 5 -18zM168 261q-1 22 -2 55q-1 2 -3 12q-6 15 -8 48q-1 25 -12 31q-10 2 -19 -7q-1 -6 -18 -54q1 -31 -15 -67q-2 -20 -9 -41q11 -9 9 -29q-1 -16 -5 -46q8 -17 21 -46q5 -6 23 -8q12 7 21 23
q13 24 16 27q-2 15 -6 43q4 21 7 59z" />
    <glyph glyph-name="p" unicode="p" horiz-adv-x="304" 
d="M216 279q-1 -25 -2 -51q-2 -30 -11 -51q0 -89 -51 -117q-31 -8 -47 -6q-14 11 -20 10q-3 5 -8 15q-1 0 -2 -1l6 -24q1 -16 -1 -33q0 -6 2 -21.5t2 -22.5q0 -31 -29 -43q-10 0 -26 4q-12 13 -12 29q3 19 9 75q-5 34 0 115q-3 13 -8 37q4 19 11 39q-2 31 4 105q-1 32 -2 95
q1 4 5 10q10 8 22 8q18 0 24 -18v-39q7 3 20 20q17 21 24 28q10 4 22 4q8 0 44 -9q18 -5 18 -27v-67q0 -4 -2.5 -11t-2.5 -12q0 -12 10 -31q0 -3 1 -10zM141 305q-2 25 -1 53q0 4 -8 12q-10 -2 -23 -16q-9 -23 -30 -66q-2 -84 -2 -82q2 0 3 -1q1 -7 -1 -20.5t-2 -19.5
q0 -23 21 -34q2 -10 10 -26q14 -9 23 -2q5 13 6 34q1 16 2 33q-3 13 -5 29q-1 16 1 45q3 34 3 46q2 7 3 15z" />
    <glyph glyph-name="q" unicode="q" horiz-adv-x="298" 
d="M215 83q-6 -20 -6 -35q0 -8 3 -28.5t3 -38.5q0 -9 -1 -27q-3 -21 -27 -21q-17 0 -28 8l-6 6q-2 2 -2 6t4 17.5t5 22.5q-2 12 -2.5 38.5t-15.5 41.5q-9 -2 -21 -6.5t-17 -4.5q-4 0 -9 1q-18 3 -33 26l-20 36q-2 15 -15 52q-4 24 -2 71q-3 14 -7 42q4 22 11 62q-3 11 -3 21
q0 16 6 36q8 26 8 29q3 13 24 25l30 14q24 1 59 -23q0 3 -3 14q11 34 39 28q17 -8 13 -45q-1 -15 -1 -46q1 -2 3 -10.5t2 -13.5q0 -12 -4 -44q2 -20 8 -52l-2 -35q-3 -18 -5 -37q-2 -22 3 -39q7 -20 6 -27q1 -21 3 -64zM149 243q-3 35 -3 94q0 6 -3 23q3 9 2 23
q-7 11 -15 23q-11 15 -22 18q-23 -17 -23 -48q0 -8 2 -18q-4 -9 -11 -26q-6 -11 -6 -27q0 -13 5 -35q5 -27 5.5 -30.5t4.5 -43.5q0 -20 10 -44q13 -34 14 -40q14 -8 21 2t10 49q3 11 9 30q-2 29 0 50z" />
    <glyph glyph-name="r" unicode="r" horiz-adv-x="270" 
d="M197 453q7 -17 7 -37q0 -29 -12 -43q-25 -12 -33 -10q-8 5 -13 18q-3 7 -5 14h-6l-26 -26q-16 -16 -20 -29q-1 -7 1 -16l2 -9v-52l-1 -12t-1 -19q6 -15 7 -27q-4 -15 -5 -44q10 -17 8 -39q-2 -20 -4 -39q-8 -12 -13 -13q-7 -9 -24 -9t-26 11q-8 22 3 63q-1 -12 -3 46
q1 1 4 26q2 17 -1 27q0 3 -6 35q-4 23 -4 38q0 11 2 20q0 -13 3 53q1 41 -3 64q11 23 39 20q15 -6 16 -21l2 -25q-1 -1 0 -2q15 16 42 36q5 -1 16 -1q23 12 31 12q12 0 23 -10z" />
    <glyph glyph-name="s" unicode="s" horiz-adv-x="297" 
d="M222 183q2 -17 2 -24q0 -33 -32 -59q-5 -3 -12.5 -10t-19.5 -18q-46 -16 -67 -18q-3 -1 -14.5 1t-16.5 2q-9 3 -27 31q-1 8 -2 31q-6 19 -6 36q0 30 21 47q32 7 43 -15q2 -12 -6 -43q3 -17 7 -44q5 -2 11 -2q33 0 58 40q-3 24 -33 51q-26 24 -54 34q-11 14 -18 19
q-8 1 -28 22q-1 5 -5 14q0 13 -4.5 35.5t-4.5 32.5q0 15 6 27q4 6 18 22q8 31 39 58q52 23 65 23t23 -7q5 -2 17 -7q16 -19 20 -54q1 -31 3 -61q2 -6 -30 -27q-2 0 -7 1h-8q-3 6 -9 16q0 1 3 29q2 18 -5 28q0 -1 4 15q1 8 -5 14q-18 6 -29 -20q-36 -11 -35 -35l-15 -39
q1 -9 4 -28q8 -5 21 -16q4 -8 14 -23q11 -2 32 -8q15 -15 27 -18.5t25 -14.5q10 -13 30 -38z" />
    <glyph glyph-name="t" unicode="t" horiz-adv-x="299" 
d="M224 127q-4 -14 -9 -23q-13 -9 -38 -30q-21 -6 -60 -17q-4 2 -20 9q-9 10 -22 31q0 2 1 25q0 16 -7 26q0 6 -2 46q0 3 -2 72q-1 44 5 72q-1 23 -1 69q-28 0 -49 14q-9 15 -6 25q2 7 5 11q8 6 17 9q6 1 16 -3q6 -3 12 -5h4q2 5 5 5q0 40 2 60q5 10 4 47q14 22 37 22
q18 0 24 -21q-3 -34 -8 -102q3 -3 15 -11q9 1 28 2q2 0 31 -5q6 -2 14 -11q10 -24 1 -34q-10 -4 -32 -16q-16 4 -48 8q-7 -7 -5.5 -18.5t-1.5 -15.5q-3 -19 0 -29q2 -18 -3 -52q-5 -39 -5 -53q0 -18 4 -31q-3 -71 4 -89q6 0 22 16.5t25 18.5q6 4 16 8q1 0 21 -6q7 -6 6 -24z
" />
    <glyph glyph-name="u" unicode="u" horiz-adv-x="315" 
d="M233 81q-3 -25 -29 -26q-4 0 -11 2q-12 13 -16 38q-5 39 -7 44q-22 -18 -30 -50q-15 -15 -30 -29q-23 -21 -40 -21q-6 0 -11 3q-15 7 -24.5 28t-8.5 40q-5 16 -4 36q3 38 3 35q-3 12 -4 29q2 10 -2 24q-5 18 -5 22q-1 8 3 32q5 32 6 41q-2 25 0 58q3 44 3 48q12 20 42 7
q0 -13 3 -39q2 -4 5 -13q1 -13 -3 -32q4 -20 -6 -39q2 -12 5 -36v-41q1 -8 4 -24q2 -11 0 -48q-1 -29 10 -46q21 1 42 55q18 19 23 38q12 42 14 47q-1 29 0 37q5 18 3 29q-5 30 -1 61q-4 18 -1 53q5 12 24 16q11 -4 16 -6q10 -6 14 -17q14 -35 -2 -74q2 -54 0 -81
q0 -6 2 -21.5t2 -22.5q0 -1 -4 -28q-3 -20 -2 -32q8 -37 17 -97z" />
    <glyph glyph-name="v" unicode="v" horiz-adv-x="290" 
d="M206 410q-1 -11 -14 -64q-9 -42 -9 -71q0 -10 1 -20l-12 -42q-3 -27 -5 -37q-5 -23 -15 -40q-2 -16 -13 -55q-6 -6 -6 -8q-7 -9 -21 -16q-21 8 -30 36q-4 11 -8 47q-4 4 -9.5 30.5t-15.5 40.5q-2 21 -9 60q-10 15 -15 34.5t-2 26.5q7 20 -6 50q2 17 2 41q-7 32 6 47
q17 15 40 0q8 -9 11 -17q0 -26 2 -40q3 -6 4 -19q-1 -9 1 -27q2 -21 2 -25q-2 -14 9 -31.5t11 -25.5q-2 -6 -2 -13q0 -9 4 -23.5t4 -19.5q15 45 17 65q-4 49 12 114q1 18 7 55q14 21 37 21q5 0 11 -3t9 -13q1 8 2 -58z" />
    <glyph glyph-name="w" unicode="w" horiz-adv-x="422" 
d="M340 402q-1 -25 -9 -73q-6 -5 -6 -27q1 -34 1 -39q-2 -15 -10 -43q-1 -9 -3 -26q-10 -20 -25 -56q-13 -31 -25 -63q-16 -40 -42 -42q-26 11 -33 40q-4 22 -9 45q-11 13 -17 32q-5 12 -9 23q-6 -16 -15 -54q-5 -25 -18 -34q-9 -10 -19 -21q-13 -14 -23 -11q-18 16 -23 35
q-1 4 -5 36q-2 10 -15 42q0 8 -3 25q-2 5 -5.5 17t-8.5 57q-5 33 -5 51q0 33 12 57q-1 13 -3 20q2 12 4 34q-1 8 -2 25q10 24 30 24q8 0 14 -5q14 -13 11 -56q8 -10 7 -25q0 -7 -3 -42q-2 -21 3 -26q1 -12 0 -19q-2 -21 -2 -48v-51q0 -8 12 -22q4 -3 5 1q5 31 8 67
q-3 19 6 93q8 15 13 32q0 2 1 69q-4 10 10 23.5t28 13.5q6 0 9 -3q13 -15 13 -37q0 -9 -3 -25t-3 -23q5 -9 7 -43l4 -68q3 -41 18 -65q6 -16 9 -40q2 -18 11 -28h4q3 4 7 13q10 42 24 111q2 13 0 38q2 15 10 37q-1 35 -2 57q-1 4 -6 16.5t-3 19.5q3 9 10 29q19 17 45 10
q26 -8 26 -37q0 -9 -7 -41z" />
    <glyph glyph-name="x" unicode="x" horiz-adv-x="354" 
d="M283 420q-1 -7 -14 -21.5t-14 -22.5q0 -3 -19 -46q-17 -17 -47 -51q-6 -10 -21 -31q6 -15 23 -34q1 -12 12 -42q14 -18 28 -37q19 -25 19 -40q0 -6 -3.5 -11l-10.5 -15q-16 -5 -24 -12q-5 -1 -9 -1q-24 0 -37 55q-7 8 -16.5 23.5t-24.5 47.5q-4 -4 -13 -49q2 -3 -8 -15
q-13 -15 -15 -20l-12 -24q-8 -16 -19 -22q-12 -1 -29 9q-5 9 -5 28q-1 9 15 32q22 34 24.5 39t24.5 65q-2 21 -5 42q-5 26 -21 41q0 1 -10 36q-6 22 -20 38q-1 3 -12 29q-8 20 -8 32q11 25 34 25q14 0 22 -13q22 -16 28 -52q10 -11 12 -46q10 -15 24 -57q11 4 17 35
q8 14 22 40q37 31 45 63q23 26 49 21q14 -5 17 -17q0 -1 1 -22z" />
    <glyph glyph-name="y" unicode="y" horiz-adv-x="298" 
d="M211 421q0 -9 -5 -23q-6 -27 -6 -48v-57q1 -14 -6 -56q4 -12 7 -35t3 -64q0 -3 -2 -9.5t-2 -9.5q3 -20 3 -64q6 -46 5 -58q-4 -44 -4 -38q5 -54 -12 -77q-20 -19 -60 -19q-19 0 -45 4q-3 1 -19 14q-5 1 -16 5q-4 3 -14 20l-15 15q-10 32 -10 44q0 27 27 38q1 2 1 4
q13 8 26 16.5t17 19.5q17 8 32 -3q12 -16 7 -31q-6 -17 -45 -24q-7 -7 -7 -17q0 -15 17 -31q16 -19 28 -19q7 0 14 6q1 45 10 132q0 -1 -4 32q-1 5 0 12q1 10 1 13q-13 -7 -32 -26q-28 -27 -33 -30t-10 -3q-23 0 -34 31q0 19 -1 54q-3 12 -6 36q2 26 0 42q-3 30 -3 31
q1 6 8 24q0 1 -1 16q-6 17 -8 23q-1 5 0 8q1 5 1 10v46q0 7 7 28q-1 11 3 32q19 18 33 18q10 0 20 -7q3 -7 3 -16t-3.5 -27t-3.5 -26q0 -20 -1 -60q9 -24 9 -45q-1 42 -2 -41q2 -85 1 -91l2 -2q11 -2 28 11.5t17 22.5v48q0 7 -1 37q-1 23 0 37q3 7 4 18q-1 37 -2 34
q4 33 3 41q-7 27 -7 26q4 13 17 28.5t25 15.5q5 0 9 -3q10 -4 27 -13q2 -7 5 -20z" />
    <glyph glyph-name="z" unicode="z" horiz-adv-x="281" 
d="M210 72q-1 -2 -10 -8q-1 2 -9 -1q-11 -4 -16 -4t-22 -8q-33 1 -94 -3q-8 4 -25 8q-15 13 -11 34q11 26 31 77q3 20 17 62q0 3 5 14q1 13 4 37q7 19 21 52q6 8 15 25q2 8 1 12q3 13 13 42q-1 3 -4 7q-40 -8 -69 -6q-14 8 -14 25q0 15 8 27q2 0 7 -2q7 4 42 0q16 -3 33 2
h21q11 6 22 6q19 0 31 -17q2 -3 -4 -15q-4 -8 -9 -16q-2 -11 -5 -34q-2 -5 -11 -21q-6 -11 -6 -21q-6 -11 -14 -33q-4 -18 -18 -58q-4 -18 -7 -28q-8 -21 -20 -34q-4 -15 -16 -41q-5 -17 -12 -49q4 -7 10 -7q4 0 12 5.5t11 5.5t72 -3q9 -1 16 -12.5t4 -19.5z" />
    <glyph glyph-name="braceleft" unicode="{" horiz-adv-x="239" 
d="M176 626q-18 -30 -40 -43q-8 -11 -13 -38q2 -10 -2 -32q-4 -25 -3 -35q5 -15 5 -38q0 -47 -14 -87q-4 -2 -11 -9q33 -23 33 -64q0 -14 -6 -47t-4 -49q7 -24 16 -61q12 -17 26 -44q-2 -13 -12 -24q-3 -3 -31 8q-24 9 -36 38q-8 26 -17 52q0 8 -3 27q-2 16 -1 24
q-1 15 -3 54q-2 36 -2 49q-1 4 -7 9q-8 2 -23 5q-9 9 -9 23q0 17 10 26q10 4 22 5q18 10 17 34q-2 22 -5 44q-2 26 5 48q-3 23 9 54l24 52q1 8 13 17t21 9.5t19 2.5q12 1 20 -5q0 -2 2 -5z" />
    <glyph glyph-name="bar" unicode="|" horiz-adv-x="194" 
d="M112 594q-5 -34 -15 -99q6 -72 -3 -114q1 -19 6 -63q4 -38 4 -59q0 -26 -5 -49q0 -5 2 -18.5t2 -20.5q0 -13 -8 -83q-2 -9 -9 -17q-11 -8 -22 -8q-21 0 -26 25q-3 13 -3 30q0 38 4 68q1 6 4 21t3 17v47q-2 25 -8 65q-1 5 8 42q5 39 7 64q0 5 -2 18t-2 20q0 -10 5 40
q-1 14 0 27q2 18 6 50q11 20 26 20q9 0 19 -8q4 -5 7 -15z" />
    <glyph glyph-name="braceright" unicode="}" horiz-adv-x="168" 
d="M155 320q-3 -1 -11 -2t-11 -2.5t-7 -8.5q-2 -34 -5 -103q-2 -24 -11 -67l-12 -38q-12 -27 -35 -36q-26 -12 -31 -8q0 1 -12 24q5 11 26 44l17 61q2 16 -4 47q-6 36 -6 50q0 35 24 58q3 0 8 6q-2 3 -10 8q-14 39 -14 86q0 22 4 39q2 9 0 24q-3 20 -4 23q0 22 0 20
q-2 12 -13 38q-19 9 -40 43q1 1 1 5q10 5 23 5q20 0 36.5 -11.5t19.5 -32.5q34 -51 27 -91q6 -18 6 -37q0 -11 -2 -28q-3 -22 -4 -27q0 -24 17 -34q14 3 23 -7t9 -24t-9 -24z" />
    <glyph glyph-name="glyph110" horiz-adv-x="160" 
 />
    <glyph glyph-name="sterling" unicode="&#xa3;" horiz-adv-x="357" 
d="M294 84q0 -11 -21 -28q2 0 -16 1q-12 7 -32 19q-15 3 -30 5q-19 4 -29 12q-3 3 -20 8q-4 -3 -6 -13q-3 -13 -5 -16q-14 -14 -33 -14q-9 0 -17 5q-39 2 -60 35q-7 22 -7 39q0 20 10 30q29 20 55 10q11 19 0 48q-1 9 7 53q-1 1 -1.5 2.5l-0.5 1.5q-7 -3 -14 -3
q-17 0 -35 19q-1 4 -1 8q0 16 17 26q7 0 15.5 -2.5t10.5 -2.5q6 0 10 5q2 14 0 31q2 4 4 11q0 66 4 81q2 10 4 29q0 22 -1 19q4 22 7 44q6 26 32 33q12 6 29 6q36 -1 29 -1q9 -1 21 -14t16 -13q18 -14 19 -51q-1 -13 8 -46q4 -22 -18 -45q-9 -4 -17 -4q-24 0 -30 28
q3 16 4 43q-6 15 -10 37q-8 7 -19 5q-11 -17 -17 -54l-8 -56q4 -60 2 -77q9 -11 28 -11q6 0 18.5 1t18.5 1q24 0 31 -18q0 -18 -16 -32q-7 0 -19 2q-21 -5 -57 5q-5 -8 -5 -38q1 -52 1 -46q-4 -15 -3 -22v-12q1 -8 1 -12q22 -12 47 -18q33 -8 43 -12q37 2 55 -30q0 -4 1 -12
zM89 113q5 9 -2 18q-15 3 -16 3t-2.5 -1l-1.5 -1v-6q1 -4 1 -5q15 -7 21 -8z" />
    <glyph glyph-name="currency" unicode="&#xa4;" horiz-adv-x="340" 
d="M240 463q-31 0 -38 71q-2 3 -16 4q-24 -41 -35 -70q-17 -19 -19 -53q8 -4 18 -4q8 0 23 3.5t19 4.5q6 1 18 -3.5t16 -3.5q17 -11 17 -28q0 -10 -7 -15q-3 -2 -38 -7q-7 -5 -11 -5q-20 0 -49 3q-14 -14 -11 -32q0 1 -3 -33q9 -7 18 -7q6 0 18 5t18 5t24 1h28q9 -13 9 -29
t-13 -24q-37 2 -53 -1q-14 7 -23 7q-13 0 -25 -13q0 -2 -1 -5q26 -27 30 -59q7 -10 12 -29q2 -2 26 -29h4q2 2 5 6q2 13 13 29t24 16q7 0 13 -4q10 -13 10 -31q0 -24 -15 -44q-7 -1 -18 -13q-25 -15 -43 -14q-14 7 -44 20q-23 23 -65 71q-14 25 -4 55q0 1 -4 25q-13 2 -25 4
q-17 3 -26 17q-9 16 0 28q16 0 40 3q4 1 12 9q1 53 -6 59q-20 0 -32 -2q-5 5 -13 14v21q5 6 16 19q23 -4 38 2q7 9 11 30q13 34 37 106q9 17 24 22q27 43 66 43q25 0 38 -26q0 -9 1 -26q15 -21 15 -58q0 -20 -8 -27.5t-16 -7.5z" />
    <glyph glyph-name="yen" unicode="&#xa5;" horiz-adv-x="320" 
d="M228 603q24 -9 24 -28q0 -12 -12 -36q-13 -27 -14 -36q0 -3 -11 -26q-4 -16 -13 -48q-10 -9 -26 -28q-17 -56 -17 -74q0 -7 1 -13q4 -1 18.5 1.5t21.5 2.5q28 0 24 -29q-10 -21 -50 -13l-10 -7q0 -2 -2 -25q-1 -17 5 -25q6 -3 20 0q16 3 22 2q21 -7 14 -33
q-26 -12 -48 -7q-10 -2 -15 -13q0 1 0 -67q6 -21 6 -24q-8 -16 -25 -16q-28 0 -39 21q1 4 -2 43q10 37 10 38q0 8 -4 13q-8 -3 -20 -3q-20 0 -35 9.5t-12 29.5q9 5 20 6q7 1 19 0q14 -1 20 -1q2 3 4 40q-3 2 -8 2q-4 0 -13.5 -1.5t-14.5 -1.5q-17 0 -31 12q-3 6 -3 12
q0 12 12 20.5t27 8.5q11 0 18 -6q2 0 14 2l4 4q-13 97 -45 147q0 15 -8 41q-36 62 -31 99q1 1 1 2q12 3 34 7q8 -7 26 -37l12 -24q6 -11 9 -39q2 -5 7 -16q2 -13 5 -40q2 -6 10 -18q15 7 26 51q6 8 16 25q3 9 10 28q1 52 25 66q8 0 24 2z" />
    <glyph glyph-name="copyright" unicode="&#xa9;" horiz-adv-x="420" 
d="M343 328q-2 -18 -5 -52q-7 -24 -20 -64q-18 -30 -18 -38q-24 -61 -68 -85q0 -2 -2 -4q-20 -22 -59 -22q-16 0 -35 4q-8 7 -26 19q-6 5 -15 17q-9 9 -27 25q-2 7 -11 19t-11 17q-6 23 -15 64q-5 9 -10 26q9 32 -6 69q1 8 4 18q-1 14 6 40q3 18 7 52q-2 7 2 18q6 17 8 32
q-1 8 0 16q20 31 25 45q12 11 34 34q17 21 29 24q16 7 47 20q13 2 36 4q19 0 31 -7q20 -11 34 -30q11 -18 22 -35q31 -50 28 -66q-1 -14 -2 -37q6 -43 17 -123zM282 288q-1 11 -6 30v46q1 6 3.5 19.5t2.5 20.5q0 16 -9 29q0 29 -6 49q0 23 -4 46q-30 31 -32 33
q-18 16 -36 23q-15 2 -35 -11q-8 -11 -30 -30q-15 -13 -21 -29q3 -10 -6.5 -31t-7.5 -30q-6 -9 -8 -24q-3 -18 -4 -20q-8 -12 -11 -32q-3 -19 3 -24q-1 -13 -2 -32q2 -7 4 -18q0 -4 -3 -41q14 -10 14 -30q-1 -25 7.5 -34t14 -19t9.5 -19q18 -18 49 -43q11 -3 21 -2
q11 10 30 24q21 30 30 47q6 10 22 51q1 8 3 22q3 9 8 29zM243 317q4 -6 4 -16q0 -26 -18 -44q-8 -3 -27 -9l-18 -9q-10 4 -24 8q-7 5 -19 15q-5 8 -8 11q-10 21 -24 52q0 6 -1 31q-1 19 0 31q2 18 9 31l6 24q30 40 71 40q19 0 37 -10q2 -3 9 -11q0 -13 -1 -26
q-5 -11 -17 -13t-23 -4q-2 1 -12.5 6t-15.5 5q-3 0 -4 -1t-3 -81q2 -15 31 -34q7 0 21 3q14 12 27 1z" />
    <glyph glyph-name="logicalnot" unicode="&#xac;" horiz-adv-x="397" 
d="M309 327q3 -24 3 -38q0 -41 -26 -65q-34 5 -34 45q0 9 2 26.5t2 23.5l-5 5q-33 0 -95 2q-64 -15 -77 -14q-23 2 -40 26q-3 31 15 42q6 0 18 2q15 -3 45 -7q24 6 25 6q24 0 66 -3q35 9 60 9q26 0 40 -9q2 -27 1 -51z" />
    <glyph glyph-name="registered" unicode="&#xae;" horiz-adv-x="420" 
d="M343 328q-2 -18 -5 -52q-7 -24 -20 -64q-18 -30 -18 -38q-24 -61 -68 -85q0 -2 -2 -4q-20 -22 -59 -22q-16 0 -35 4q-8 7 -26 19q-6 5 -15 17q-9 9 -27 25q-2 7 -11 19t-11 17q-6 23 -15 64q-5 9 -10 26q9 32 -6 69q1 8 4 18q-1 14 6 40q3 18 7 52q-2 7 2 18q6 17 8 32
q-1 8 0 16q20 31 25 45q12 11 34 34q17 21 29 24q16 7 47 20q13 2 36 4q19 0 31 -7q20 -11 34 -30q11 -18 22 -35q31 -50 28 -66q-1 -14 -2 -37q6 -43 17 -123zM282 288q-1 11 -6 30v46q1 6 3.5 19.5t2.5 20.5q0 16 -9 29q0 29 -6 49q0 23 -4 46q-30 31 -32 33
q-18 16 -36 23q-15 2 -35 -11q-8 -11 -30 -30q-15 -13 -21 -29q3 -10 -6.5 -31t-7.5 -30q-6 -9 -8 -24q-3 -18 -4 -20q-8 -12 -11 -32q-3 -19 3 -24q-1 -13 -2 -32q2 -7 4 -18q0 -4 -3 -41q14 -10 14 -30q-1 -25 7.5 -34t14 -19t9.5 -19q18 -18 49 -43q11 -3 21 -2
q11 10 30 24q21 30 30 47q6 10 22 51q1 8 3 22q3 9 8 29zM241 391q-1 -6 -4 -16q-11 -13 -32 -38q7 -6 23 -21q21 -6 21 -29q0 -21 -16 -34q-3 0 -10 2q-6 6 -13 15q-26 16 -44 28q-2 -4 -2 -10q0 -4 1.5 -14.5t1.5 -15.5q0 -18 -22 -20q-25 9 -25 38q0 9 3 26.5t2 24.5
q2 3 7 12q-1 22 1 66q0 4 -3 15t-3 17q0 8 4 14q9 8 42 21q7 -1 22 -3q21 1 36.5 -17t15.5 -40q0 -12 -6 -21zM194 383q-1 11 -2.5 23t-11.5 17q-1 -1 -2.5 -1.5t-1.5 -1.5v-62h3q7 4 9.5 11.5t5.5 13.5z" />
    <glyph glyph-name="mu1" unicode="&#xb5;" horiz-adv-x="357" 
d="M275 224q15 -14 15 -33q0 -22 -22 -56l-6 -34q-5 -21 -17.5 -37t-22.5 -13q-3 2 -11 6q-42 6 -41 54q-2 3 -4 3l-10 -32q-4 -10 -18 -25l-25 -2q-11 6 -21 23q-15 24 -16 25q0 -3 2 -37q0 -2 -2 -20q-1 -14 0 -34q2 -37 1 -44q-3 -23 -22 -33q-13 -2 -29 8q-7 21 -9 44
q1 10 3 29q-3 18 -2 33q15 45 5 86q3 10 9 21q0 -4 0 28q3 12 8 34q-2 24 1 43q0 4 -1 15.5l-1 11.5v42q0 1 -2 7l-3 9q0 19 4 57q-3 39 29 51q4 -2 10 -3.5t13 -7.5q14 -17 9 -60q-6 -49 -4 -55q6 -19 7 -42v-39q4 -14 8 -27q6 -24 3 -37q-3 -5 -3 -11t13 -27q1 0 2 -1
q2 4 4.5 12.5t7.5 50.5q13 22 3 66q3 60 3 58q0 4 -5 21q1 22 3 56q0 5 11 34q6 11 21 12q12 1 23 2l3 -3q6 -7 9 -17l-2 -42q3 -21 -2 -64q2 -26 5 -77q5 -9 5 -24v-27t3 -36q2 -8 10 -18q4 -1 5 -1q0 10 1 54q7 9 20.5 16.5t21.5 6.5zM267 210l-2 1l-1 -2l2 -1z" />
    <glyph glyph-name="mu1" unicode="&#x3bc;" horiz-adv-x="357" 
d="M275 224q15 -14 15 -33q0 -22 -22 -56l-6 -34q-5 -21 -17.5 -37t-22.5 -13q-3 2 -11 6q-42 6 -41 54q-2 3 -4 3l-10 -32q-4 -10 -18 -25l-25 -2q-11 6 -21 23q-15 24 -16 25q0 -3 2 -37q0 -2 -2 -20q-1 -14 0 -34q2 -37 1 -44q-3 -23 -22 -33q-13 -2 -29 8q-7 21 -9 44
q1 10 3 29q-3 18 -2 33q15 45 5 86q3 10 9 21q0 -4 0 28q3 12 8 34q-2 24 1 43q0 4 -1 15.5l-1 11.5v42q0 1 -2 7l-3 9q0 19 4 57q-3 39 29 51q4 -2 10 -3.5t13 -7.5q14 -17 9 -60q-6 -49 -4 -55q6 -19 7 -42v-39q4 -14 8 -27q6 -24 3 -37q-3 -5 -3 -11t13 -27q1 0 2 -1
q2 4 4.5 12.5t7.5 50.5q13 22 3 66q3 60 3 58q0 4 -5 21q1 22 3 56q0 5 11 34q6 11 21 12q12 1 23 2l3 -3q6 -7 9 -17l-2 -42q3 -21 -2 -64q2 -26 5 -77q5 -9 5 -24v-27t3 -36q2 -8 10 -18q4 -1 5 -1q0 10 1 54q7 9 20.5 16.5t21.5 6.5zM267 210l-2 1l-1 -2l2 -1z" />
    <glyph glyph-name="paragraph" unicode="&#xb6;" horiz-adv-x="397" 
d="M332 544q-7 -8 -19.5 -9t-23.5 -2q-4 -21 -13 -60q3 -24 8 -73q-2 -20 -10 -49q2 -8 4 -22q3 -13 -3 -38q3 -30 2 -67q0 -6 5 -31q5 -21 5 -35q0 -8 -1 -16q0 -11 3 -41q2 -16 -1 -31q-1 -7 -14 -23q-21 0 -36 10q-15 22 -3 62q-6 64 -5 68q-3 11 -3 28q0 14 2 39.5
t2 33.5q0 10 -1.5 16.5t-3.5 22.5q1 7 1 16q0 17 -8.5 57.5t-8.5 60.5q11 32 5 66l-3 3q-27 7 -40 -3q-11 -14 -12 -40q-1 -17 -1 -34q12 -23 9 -43q2 -11 -1 -29q-3 -24 -3 -27q0 -4 2.5 -17.5t2.5 -17.5v-48q2 -24 0 -32q-4 -16 -4 -32q0 -12 3 -31.5t3 -29.5q5 -17 5 -35
q0 -57 -47 -56q-21 14 -21 43q0 9 2.5 25.5t2.5 21.5q4 16 5 35q-11 91 -11 87v50q0 21 -2 30.5t-2 13.5l6 27q-1 -6 -3 18q-4 2 -16 2.5t-23 10.5q-22 4 -48 37q-3 39 12 64q11 7 35 27q18 8 30 20q15 5 27 10q24 -10 39 -7q56 17 72 16q31 7 45 7q23 0 41 -11
q13 -16 13 -28q0 -5 -1 -10z" />
    <glyph glyph-name="onequarter" unicode="&#xbc;" horiz-adv-x="508" 
d="M420 188v0v0v0zM186 410q4 -17 -9 -33q3 0 -14 -3q-15 1 -93 -8q-25 9 -25 52h5q10 5 32 9q6 3 10 26q0 21 -9 35q-24 -2 -37 -1q-5 7 -2 20q3 18 3 19q12 6 21 23q15 25 16 26q10 7 25 8q13 1 19 -2q2 1 4 1q20 0 20 -17q-4 -28 -4 -70l1 -68q4 -2 23 -4q12 -1 14 -13z
M392 563q-6 -44 -50 -94q-10 -31 -35 -75q-11 -8 -26 -23q-15 -26 -52 -82q-13 -29 -45 -84q-23 -25 -58 -68q-3 -13 -7 -24q-7 -26 -45 -53q-7 -4 -31 1q-19 12 -11 33q3 3 3 5h3q1 -1 2 -1q2 3 6 8q1 2 1 5q5 1 10 12q3 8 6 17q20 37 37 54q6 17 27 45q18 23 36 47
q17 13 19 42q46 57 67 89q1 2 5 19q29 49 77 139q8 9 28 20q8 1 26 -11q7 -8 7 -21zM445 197q-2 -13 -9 -20q-1 -1 -9 -3q-15 -2 -17 -19q-4 -26 -5 -28q16 -39 4 -55q-7 -8 -18 -8q-19 0 -34 14q-9 13 -9 32q0 5 1 14t1 13q0 11 -5 17q-43 -2 -88 4q-9 10 -9 27q0 15 8 38
q1 1 13 54q8 35 35 35q5 0 11 -1q12 -11 12 -28q0 -11 -7.5 -32t-8.5 -28q5 -6 19 -7q19 -1 22 -2q4 6 2 18q-2 19 -2 22q10 25 46 17q16 -10 10 -52l3 -2q11 0 21 -1q16 -5 13 -19zM394 196l-2 1l-1 -2l2 -1z" />
    <glyph glyph-name="onehalf" unicode="&#xbd;" horiz-adv-x="480" 
d="M186 410q4 -17 -9 -33q3 0 -14 -3q-15 1 -93 -8q-25 9 -25 52h5q10 5 32 9q6 3 10 26q0 21 -9 35q-24 -2 -37 -1q-5 7 -2 20q3 18 3 19q12 6 21 23q15 25 16 26q10 7 25 8q13 1 19 -2q2 1 4 1q20 0 20 -17q-4 -28 -4 -70l1 -68q4 -2 23 -4q12 -1 14 -13zM416 149
q0 -12 -7 -36q-28 -9 -55 -9q-31 0 -57 10q-5 4 -8 10q-2 27 20 67q15 26 30 51q5 19 -16 26q-2 0 -14 -10q-2 -22 -24 -22q-4 0 -7 2q-3 6 -10 19q2 14 3 26q22 43 54 45q7 2 36 -5q8 -1 16 -4q12 -10 16 -31q5 -10 8 -18q-4 -28 -8 -55q-8 -32 -32 -52q-1 -1 -1 -3
q6 -5 14 -5q4 0 11 1t11 1q12 0 20 -8zM392 563q-6 -44 -50 -94q-10 -31 -35 -75q-11 -8 -26 -23q-15 -26 -52 -82q-13 -29 -45 -84q-23 -25 -58 -68q-3 -13 -7 -24q-7 -26 -45 -53q-7 -4 -31 1q-19 12 -11 33q3 3 3 5h3q1 -1 2 -1q2 3 6 8q1 2 1 5q5 1 10 12q3 8 6 17
q20 37 37 54q6 17 27 45q18 23 36 47q17 13 19 42q46 57 67 89q1 2 5 19q29 49 77 139q8 9 28 20q8 1 26 -11q7 -8 7 -21z" />
    <glyph glyph-name="threequarters" unicode="&#xbe;" horiz-adv-x="508" 
d="M420 188v0v0v0zM186 463q2 -8 2 -17q0 -30 -21.5 -55t-48.5 -25q-9 0 -17 3q-8 -1 -21 0l-26 11q-17 7 -25 22q5 26 37 26q13 0 23 -6q11 0 29 2q2 2 4 21q-17 14 -31 15q-9 5 -28 14q-3 7 -3 12q0 10 23 16t26 19q0 3 -1 4q-9 0 -29 -1.5t-33 -1.5q-10 12 -7 22
q0 4 7.5 13.5t13.5 10.5q19 7 42 7q66 0 65 -56q-2 -4 -19 -26q16 -9 38 -30zM392 563q-6 -44 -50 -94q-10 -31 -35 -75q-11 -8 -26 -23q-15 -26 -52 -82q-13 -29 -45 -84q-23 -25 -58 -68q-3 -13 -7 -24q-7 -26 -45 -53q-7 -4 -31 1q-19 12 -11 33q3 3 3 5h3q1 -1 2 -1
q2 3 6 8q1 2 1 5q5 1 10 12q3 8 6 17q20 37 37 54q6 17 27 45q18 23 36 47q17 13 19 42q46 57 67 89q1 2 5 19q29 49 77 139q8 9 28 20q8 1 26 -11q7 -8 7 -21zM445 197q-2 -13 -9 -20q-1 -1 -9 -3q-15 -2 -17 -19q-4 -26 -5 -28q16 -39 4 -55q-7 -8 -18 -8q-19 0 -34 14
q-9 13 -9 32q0 5 1 14t1 13q0 11 -5 17q-43 -2 -88 4q-9 10 -9 27q0 15 8 38q1 1 13 54q8 35 35 35q5 0 11 -1q12 -11 12 -28q0 -11 -7.5 -32t-8.5 -28q5 -6 19 -7q19 -1 22 -2q4 6 2 18q-2 19 -2 22q10 25 46 17q16 -10 10 -52l3 -2q11 0 21 -1q16 -5 13 -19zM394 196l-2 1
l-1 -2l2 -1z" />
    <glyph glyph-name="Aring" unicode="&#xc5;" horiz-adv-x="331" 
d="M165 659q-36 27 -65 25q-13 -17 -13 -38q0 -12 6 -30q37 -12 39 -12q12 0 23 6q3 3 6 20q1 9 4 23q1 1 0 6zM241 150q13 -54 13 -57q0 -29 -32 -36q-26 3 -35 16q-1 16 -2 33.5t-8 30.5q1 8 -7 21q-7 3 -22 0q-22 -3 -24 -3q-32 -16 -42 -14q-5 -15 -7 -39q-2 -27 -4 -36
q-7 -20 -27 -20q-27 0 -33 24q-1 12 9 58.5t10 58.5v46q0 5 4 25q3 16 1 24q2 5 6 56q3 35 20 66q-2 29 10 66q5 31 10 73q-2 5 7 19q-9 4 -15 9q-14 2 -24.5 13t-9.5 26q-11 24 -11 35q0 15 9 28q0 27 36 53q14 3 43 12q29 -2 60.5 -26.5t51.5 -58.5q1 -14 -2 -26
q2 -11 -18 -32q-6 -22 -32 -35v-2q1 -10 13 -55q10 -39 9 -66q17 -36 20 -82q6 -87 8 -97q1 -6 -1 -26q2 -13 10 -31q0 -18 6 -51zM168 220q0 11 -3 36l-4 26q1 20 -5 58l-10 93q-1 8 -15 31q-3 22 -5 35q-4 -6 -5 -51q-6 -37 -20 -108q-2 -17 -5 -49q0 2 0 -39
q1 -23 -5 -27q7 -7 11 -14q12 0 25 4q9 2 16 0q18 -5 19 -4q5 4 6 9z" />
    <glyph glyph-name="AE" unicode="&#xc6;" horiz-adv-x="391" 
d="M168 220q0 10 4 35t4 27q2 21 -4 60q-2 16 1.5 44.5t1.5 43.5q1 -5 1 32q1 29 -5 39q0 3 -5 3t-18 -4t-17 -4t-5 3q-4 -6 -5 -51q-6 -37 -20 -108q-2 -17 -5 -49q0 2 0 -39q1 -23 -5 -27q7 -7 11 -14q12 0 25 4q9 2 16 0q18 -5 19 -4q5 4 6 9zM363 161q7 -15 -4 -38
q-47 -54 -111 -57q-2 -1 -9.5 -4t-16.5 -5q-26 3 -35 16q-1 5 -1 14q-3 19 -12 54v12q-1 3 -4 5q-7 3 -22 0q-22 -3 -24 -3q-32 -16 -42 -14q-5 -15 -7 -39q-2 -27 -4 -36q-7 -20 -27 -20q-27 0 -33 24q-1 12 9 58.5t10 58.5v46q0 5 4 25q3 16 1 24q2 5 6 56q3 35 20 66
q-2 29 10 66q5 31 10 73q-1 3 13 30q3 7 5 18q9 13 22 13q9 0 21 -6q17 -8 18 -8l3 -5q31 -1 33 -1q28 4 31 3.5t113 2.5q6 -2 17 -7q7 -10 -6 -39q-14 -8 -63 -7q-1 0 -19 6q-12 3 -18 1q-2 -12 -4 -33q-3 -8 -7 -25q-1 -10 -2 -32q10 -27 -1 -46l-1 -20q-1 -12 9 -20
q1 0 2 -1q32 8 56 8q16 -4 32 -9q22 -9 17 -29q-1 -7 -6 -16q-11 -8 -27 -8q-11 0 -33 4.5t-32 4.5t-17 -2q-3 -3 -3 -9q0 -12 6 -32q-2 -11 -2 -35q2 -9 5 -28q-1 -25 -1 -71q3 -10 9 -31q6 -1 22 0t39 24.5t35 22.5h16z" />
    <glyph glyph-name="multiply" unicode="&#xd7;" horiz-adv-x="334" 
d="M255 226l-6 -15q-1 -2 -6 -5t-5 -5l-12 3q-3 -3 -10 -1q-10 2 -11 2q-13 7 -20 13q-9 16 -23 43q-8 9 -25 29q-13 -2 -20.5 -24.5t-15.5 -44.5q0 -5 -15 -12q-22 -9 -30 -14q-4 3 -8 3q-14 16 -13 37q3 8 8 21q0 2 33 38q6 7 27 35q1 12 -12 28t-11 20q-29 35 -29 58
q0 18 16 31q4 1 9 1q21 0 39 -28q13 -22 19 -49q3 -7 15 -4q6 11 17 33q11 11 17 24q4 8 19 18q11 1 27 4q7 2 22 -2q4 -6 4 -19q0 -28 -19 -40q-33 -21 -65 -65q8 -12 22 -40q16 -13 37 -38q29 -23 25 -35z" />
    <glyph glyph-name="Oslash" unicode="&#xd8;" horiz-adv-x="321" 
d="M94 261q4 16 5 26q4 20 13 55q9 25 25 76l10 50q7 34 17 51q-8 43 -35 47q-4 -3 -10 -6q-7 -20 -22 -54q0 -1 3 -68q-13 -42 -5 -140q-4 -23 -3 -32q1 -2 2 -5zM183 384q-1 -11 -4 -33q-8 -19 -21 -56q-2 -31 -24 -69q-7 -27 -16 -92q-3 -6 -6 -14q9 -16 18 -16
q6 0 11 7.5t10 20.5q11 21 12 27q5 26 10 45q-2 25 -1 36q14 29 14 76q0 14 -1.5 37.5t-1.5 30.5zM238 553q-1 -3 -18 -36q10 -29 9 -47q0 -11 4.5 -34t4.5 -33q-1 -6 -5 -22q-1 -7 0 -18q6 -24 6 -42q-1 -23 -2 -47q-1 -117 -62 -191q-25 -26 -56 -26q-7 0 -11.5 1t-12.5 8
q-13 -30 -37 -36q-30 -2 -30 27q0 23 20 63q-20 57 -17 88q-2 20 4 111q-5 13 -4 37q0 24 5 35q-1 21 -1 57q3 21 11 45q1 18 8 66q3 13 17 24t25 9q14 9 46 16q22 -6 43 -25q8 18 22 22q25 2 36 -5q3 -2 3 -9q0 2 -8 -38z" />
    <glyph glyph-name="aring" unicode="&#xe5;" horiz-adv-x="300" 
d="M213 381q-6 -12 -3 -26q3 -7 2 -15q-3 -17 -3 -24t-4 -34q0 -2 2 -9.5t2 -11.5q0 2 -5 -42q7 -28 -3 -72q4 -20 4 -41l2 -34q-1 -21 -16 -31q-30 8 -50 20q0 14 -2 42q-16 -22 -32 -45q-19 -24 -45 -24q-33 3 -36 66q1 14 5 26q7 18 18 54q1 11 5 30q29 70 49 71
q3 5 13 22q28 22 29 39q-2 26 -4 51q-3 31 -23 36q-16 -22 -20 -38q2 -10 2 -30q7 -6 19 -18q-3 -34 -33 -34q-18 0 -35 14t-17 32q0 5 2 10q-2 7 -2 14q0 29 28.5 57.5t55.5 31.5q10 4 32 9q27 -4 58 -48q4 -14 5 -48zM141 169q5 6 5 13q0 1 -3 21t-4 45q-10 -10 -18 -30
t-18 -30q-7 -20 -18 -70q2 0 4 1q6 10 20 27q11 5 32 23zM238 633q1 -14 -2 -26q2 -11 -18 -32q-6 -21 -29 -34q-19 -9 -37 -18q-4 0 -12 2q-20 6 -57 26q-14 2 -24.5 13t-9.5 26q-10 23 -10 35q0 14 8 28q2 29 36 53q14 3 43 12q29 -2 60.5 -26.5t51.5 -58.5zM175 639
q-36 27 -65 25q-13 -17 -13 -38q0 -12 6 -30q37 -12 39 -12q12 0 23 6q3 3 6 20q1 9 4 23q1 1 0 6z" />
    <glyph glyph-name="ae" unicode="&#xe6;" horiz-adv-x="473" 
d="M394 412q7 -18 -1 -49q-1 -4 -5 -10q-22 -16 -43 -32q-31 -22 -52 -22q-10 -9 -20 -13l-20 -8q-6 -5 -18 -17q-3 -42 -3 -44q1 -20 11 -42q13 -27 13 -65q3 -7 11 -10q13 -6 16 -8q20 10 39 25q8 37 9 41q10 28 26 28q9 0 21 -9q5 -10 5 -23q0 -22 -14 -43q-2 -3 -4 -9
q2 -15 -11 -30t-31 -17q-16 -12 -33 -12q-8 0 -20 3.5t-16 3.5q-8 10 -25 30q-3 1 -4 0q-3 -21 -2 -29q-9 -19 -38 -19q-16 0 -26 8q-7 12 2 42q1 9 4 29q0 1 -3 4q-34 -37 -74 -50q-10 -8 -28 -14t-28 -3q-11 5 -14 24q-5 14 8 63q12 33 12 34q12 38 58 84q16 11 24 31
q17 13 44 33q2 11 0 29q-3 23 -3 30q0 18 6 31q0 3 -7 25q-4 3 -21 1q-24 -4 -29 -4q-12 -14 -12 -29q-1 -28 -1 -29q-1 -6 -5 -12q3 -55 3 -50q-7 -17 -24 -17q-19 0 -39 18q-6 6 -16 20q-2 76 48 120q6 3 28 16q9 5 24 11q15 -2 45 -4q45 -3 43 -3q7 -2 8.5 -16t3.5 -28
q7 0 8 4q7 23 29 37q19 11 38 11q7 2 15 2q35 0 48 -29q5 -3 14 -9q8 -10 26 -30zM333 391q2 3 -8 23q-5 1 -20 9t-23 8q-12 0 -20 -13q-9 -33 -27 -88l5 -5q8 1 25 14q11 12 55 35q10 10 13 17zM164 177q2 23 -1 76q-33 -33 -50 -57q-21 -9 -47 -64q2 -11 3.5 -13t2.5 -3
q7 0 13 3q45 38 79 58z" />
    <glyph glyph-name="eth" unicode="&#xf0;" horiz-adv-x="306" 
d="M220 300q-2 -10 -2 -12q5 -16 -7 -55q1 -10 1 -49q-2 -25 -6 -38q-7 -22 -24 -40q-4 -13 -15 -35q-16 -4 -40 -20q-10 -1 -52 12q-6 6 -10 12q-12 22 -23 43q-13 26 -10 43q-1 5 -11 21q0 31 -4 56q6 15 19 62q-3 42 -3 34q4 10 11 30q1 8 4 25q27 45 62 48q15 0 43 -3
q-6 11 -11.5 18t-8.5 19q-2 7 -10 10q-2 0 -12 -3q-11 -26 -37 -26q-21 0 -21 19q0 11 17 26q23 20 26 23q-8 8 -26.5 17t-25.5 16q-2 6 -2 10q0 21 31 21q25 0 41 -10q21 -11 25 -11q6 0 17 10q15 14 19 17q12 5 21 5q15 0 23 -14l-3 -12t-30 -33q-7 -4 -20 -13q1 -4 6 -13
q12 -9 21 -21q6 -19 19 -57q3 -17 1 -46q0 -4 1 -17q12 -13 12 -36q0 -17 -6 -33zM63 562v2h-3v-2h3zM168 296q-5 28 -9 56q-6 33 -34 45q-9 -3 -15 -16q-4 -9 -7 -19q-8 -11 -10 -22v-18q-13 -24 -4 -52q-8 -38 -8 -39q-4 -15 2 -40q4 -12 10 -37q3 -17 4 -22q4 -12 14 -21
q7 -4 21 2q8 9 23 60q-2 36 12 63q0 -3 -1 29q1 40 2 31z" />
    <glyph glyph-name="divide" unicode="&#xf7;" horiz-adv-x="342" 
d="M195 441q5 -8 5 -16q0 -14 -14 -24t-31 -10q-8 0 -14 3q-17 14 -28 29q4 37 40 37q26 0 42 -19zM270 343q4 -7 4 -14q0 -14 -14 -24.5t-28 -10.5q-6 0 -10 2q-3 0 -9 -1q-15 -9 -43 -9q-14 0 -46 3.5t-47 2.5q-1 0 -20 -3q-12 -2 -20 1q-17 11 -17 25q0 11 13 27l22 6
q15 4 23 2q13 -4 38 -9q6 1 20 3q8 -2 22 -2q18 4 94 8q6 -1 18 -7zM196 225q4 -7 4 -14q0 -13 -14 -21.5t-32 -8.5q-8 0 -15 2q-24 9 -24 33t25 41h4q4 1 6 1q31 1 46 -33z" />
    <glyph glyph-name="oslash" unicode="&#xf8;" horiz-adv-x="307" 
d="M225 276q-2 -24 0 -50q5 -18 5 -35q0 -12 -4 -38q-6 -30 -7 -50q-18 -28 -52 -46q-6 1 -18 -1q-15 -3 -22 -3q-16 0 -30 10q-3 1 -13 4l-3 -4q-4 -19 -6 -25q-6 -16 -17 -22q-12 1 -28 8t-18 17q6 31 32 103q0 8 -15 58q2 11 0 34q-6 20 -6 36t9 46q-2 28 -1 38
q2 22 2 32q5 10 14 30q20 43 86 44q19 -9 24 -16q8 3 9 12v14q3 10 15 19t23 9t17 -10q2 -7 2 -15q0 -31 -28 -63q4 -10 5 -28q15 -22 20 -61q3 -24 5 -47zM129 391v9q-1 8 -1 9q-2 2 -12 -7q-15 -14 -16 -14q-5 -21 -16 -63q4 -17 3 -48q-1 -34 1 -48q12 48 29 126
q4 13 12 36zM164 185q2 14 0 30q5 18 5 43q0 27 -7 39q-6 -13 -17 -37q-1 -7 -4 -34q-19 -66 -26 -98q6 -16 21 -24q14 0 21 16q7 13 4 22q0 32 3 43z" />
    <glyph glyph-name="quotedblleft" unicode="&#x201c;" horiz-adv-x="235" 
d="M189 501l12 -45q3 -20 7 -37q5 -9 5 -20q0 -15 -12 -17q-8 1 -23 5q-11 7 -17 25q-4 14 -8 27q-2 5 -7 16q-3 15 -17 57q-18 26 -17 54q3 4 19 10q27 -1 35 -1q16 -10 20 -34q1 -20 3 -40zM134 404q1 -3 1 -6q0 -9 -10 -13.5t-17 -1.5q-9 11 -26 27q-2 16 -5 23
q-4 14 -14 28q-15 13 -26 51q-6 10 -9 28q-2 14 -4 29q5 14 25 14q15 0 28 -8.5t15 -26t4 -34.5q6 -19 19 -61q6 -17 19 -49z" />
    <glyph glyph-name="quotedblright" unicode="&#x201d;" horiz-adv-x="218" 
d="M169 501l-12 -45q-8 -20 -13 -37q1 -10 -6 -21q-8 -14 -21 -16q-7 1 -20 5q-5 4 -5 14q0 7 4 21t4 18t1 15q5 15 14 57q-5 26 12 54q5 4 25 10q25 -1 34 -1q6 -6 6 -15q0 -10 -9 -29q-13 -26 -14 -30zM62 404q-1 -11 -15.5 -18t-21.5 -3q-3 11 -12 27q12 30 9 51
q-8 13 1 51q-1 10 6 28q6 14 12 29q12 14 32 14q15 0 24 -8q4 -5 4 -11q0 -9 -7 -25q-10 -21 -11 -25q-4 -19 -14 -61q-2 -17 -7 -49z" />
    <glyph glyph-name="perthousand" unicode="&#x2030;" horiz-adv-x="512" 
d="M455 142q3 -29 -19 -61q-24 -35 -55 -31q-3 2 -10 2q-26 2 -35 44v44q0 9 -5 30q-5 61 22 99q9 8 25 17q6 5 16 5q28 0 43 -22q5 -13 5 -50q0 -18 10 -53zM141 476q5 -56 -30 -89q-51 -9 -67 -5q-38 20 -37 73q0 19 5 52t5 44q1 5 6 17q11 14 37 20q35 -1 55 -13
q1 -2 24 -41q0 -7 1 -22q1 7 1 -36zM251 559q-10 -18 -24 -52q-2 -17 -7 -47q-8 -23 -23 -67q-2 -12 -5 -36q-7 -19 -21 -56q-2 -31 -24 -69q-7 -27 -15 -92q-4 -6 -11 -49q-5 -28 -31 -35q-37 -2 -37 31q0 31 25 68q1 24 17 73t17 65q4 20 13 56q9 24 25 75q5 27 11 54
q8 37 20 54q7 17 13 35q10 21 28 26q15 1 24 -6t5 -28zM309 192q0 -17 -5 -37.5t-5 -28.5l-2 -2q-3 -19 -8 -30q-19 -40 -58 -40q-34 0 -43 35q-12 99 -12 116q0 33 7 55q3 1 28 22q18 15 30 11q19 6 20 6q44 -22 48 -107zM92 466q-4 1 -6 5q2 10 1 56l-6 12q-7 -4 -9 -9
q-13 -50 -13 -59q0 -22 13 -37h4q17 10 16 32zM392 120q4 14 4 29q0 18 -13 79l-4 -3q-2 -27 3 -100q5 -5 10 -5zM246 191q2 33 -7 44q-3 -4 -10 -24q4 -18 2 -54.5t2 -49.5q-2 0 7 -2q0 1 1.5 1.5t1.5 1.5q4 6 4 17q0 1 -3 33q-2 21 2 33z" />
  </font>
</defs>
</svg>
